<svg width="333" height="48" viewBox="0 0 333 48" fill="none" xmlns="http://www.w3.org/2000/svg">
    <path d="M0.415483 8.17614V2.09091H29.0859V8.17614H18.3984V37H11.103V8.17614H0.415483ZM40.9325 21.8636V37H33.6712V2.09091H40.728V15.4375H41.0348C41.6257 13.892 42.5803 12.6818 43.8984 11.8068C45.2166 10.9205 46.87 10.4773 48.8587 10.4773C50.6768 10.4773 52.2621 10.875 53.6143 11.6705C54.978 12.4545 56.0348 13.5852 56.7848 15.0625C57.5462 16.5284 57.9212 18.2841 57.9098 20.3295V37H50.6484V21.625C50.6598 20.0114 50.2507 18.7557 49.4212 17.858C48.603 16.9602 47.4553 16.5114 45.978 16.5114C44.9893 16.5114 44.1143 16.7216 43.353 17.142C42.603 17.5625 42.0121 18.1761 41.5803 18.983C41.1598 19.7784 40.9439 20.7386 40.9325 21.8636ZM75.5561 37.5114C72.8629 37.5114 70.5447 36.9659 68.6016 35.875C66.6697 34.7727 65.1811 33.2159 64.1357 31.2045C63.0902 29.1818 62.5675 26.7898 62.5675 24.0284C62.5675 21.3352 63.0902 18.9716 64.1357 16.9375C65.1811 14.9034 66.6527 13.3182 68.5504 12.1818C70.4595 11.0455 72.6982 10.4773 75.2663 10.4773C76.9936 10.4773 78.6016 10.7557 80.0902 11.3125C81.5902 11.858 82.897 12.6818 84.0107 13.7841C85.1357 14.8864 86.0107 16.2727 86.6357 17.9432C87.2607 19.6023 87.5732 21.5455 87.5732 23.7727V25.767H65.4652V21.267H80.7379C80.7379 20.2216 80.5107 19.2955 80.0561 18.4886C79.6016 17.6818 78.9709 17.0511 78.1641 16.5966C77.3686 16.1307 76.4425 15.8977 75.3857 15.8977C74.2834 15.8977 73.3061 16.1534 72.4538 16.6648C71.6129 17.1648 70.9538 17.8409 70.4766 18.6932C69.9993 19.5341 69.755 20.4716 69.7436 21.5057V25.7841C69.7436 27.0795 69.9822 28.1989 70.4595 29.142C70.9482 30.0852 71.6357 30.8125 72.522 31.3239C73.4084 31.8352 74.4595 32.0909 75.6754 32.0909C76.4822 32.0909 77.2209 31.9773 77.8913 31.75C78.5618 31.5227 79.1357 31.1818 79.6129 30.7273C80.0902 30.2727 80.4538 29.7159 80.7038 29.0568L87.4197 29.5C87.0788 31.1136 86.38 32.5227 85.3232 33.7273C84.2777 34.9205 82.9254 35.8523 81.2663 36.5227C79.6186 37.1818 77.7152 37.5114 75.5561 37.5114ZM115.596 13.375C115.357 12.5455 115.022 11.8125 114.59 11.1761C114.158 10.5284 113.63 9.98295 113.005 9.53977C112.391 9.08523 111.687 8.73864 110.891 8.5C110.107 8.26136 109.238 8.14205 108.283 8.14205C106.499 8.14205 104.931 8.58523 103.579 9.47159C102.238 10.358 101.192 11.6477 100.442 13.3409C99.6925 15.0227 99.3175 17.0795 99.3175 19.5114C99.3175 21.9432 99.6868 24.0114 100.425 25.7159C101.164 27.4205 102.21 28.7216 103.562 29.6193C104.914 30.5057 106.511 30.9489 108.352 30.9489C110.022 30.9489 111.448 30.6534 112.63 30.0625C113.823 29.4602 114.732 28.6136 115.357 27.5227C115.994 26.4318 116.312 25.142 116.312 23.6534L117.812 23.875H108.812V18.3182H123.42V22.7159C123.42 25.7841 122.772 28.4205 121.477 30.625C120.181 32.8182 118.397 34.5114 116.124 35.7045C113.852 36.8864 111.249 37.4773 108.317 37.4773C105.045 37.4773 102.17 36.7557 99.6925 35.3125C97.2152 33.858 95.2834 31.7955 93.897 29.125C92.522 26.4432 91.8345 23.2614 91.8345 19.5795C91.8345 16.75 92.2436 14.2273 93.0618 12.0114C93.8913 9.78409 95.0504 7.89773 96.5391 6.35227C98.0277 4.80682 99.7607 3.63068 101.738 2.82386C103.715 2.01704 105.857 1.61364 108.164 1.61364C110.141 1.61364 111.982 1.90341 113.687 2.48295C115.391 3.05114 116.903 3.85795 118.221 4.90341C119.55 5.94886 120.636 7.19318 121.477 8.63636C122.317 10.0682 122.857 11.6477 123.096 13.375H115.596ZM130.468 37V10.8182H137.729V37H130.468ZM134.116 7.44318C133.036 7.44318 132.11 7.08523 131.337 6.36932C130.576 5.64204 130.195 4.77273 130.195 3.76136C130.195 2.76136 130.576 1.90341 131.337 1.1875C132.11 0.460226 133.036 0.0965891 134.116 0.0965891C135.195 0.0965891 136.116 0.460226 136.877 1.1875C137.65 1.90341 138.036 2.76136 138.036 3.76136C138.036 4.77273 137.65 5.64204 136.877 6.36932C136.116 7.08523 135.195 7.44318 134.116 7.44318ZM167.955 10.8182L158.802 37H150.62L141.467 10.8182H149.137L154.575 29.5511H154.847L160.268 10.8182H167.955ZM171.671 37V10.8182H178.933V37H171.671ZM175.319 7.44318C174.239 7.44318 173.313 7.08523 172.54 6.36932C171.779 5.64204 171.398 4.77273 171.398 3.76136C171.398 2.76136 171.779 1.90341 172.54 1.1875C173.313 0.460226 174.239 0.0965891 175.319 0.0965891C176.398 0.0965891 177.319 0.460226 178.08 1.1875C178.853 1.90341 179.239 2.76136 179.239 3.76136C179.239 4.77273 178.853 5.64204 178.08 6.36932C177.319 7.08523 176.398 7.44318 175.319 7.44318ZM192.011 21.8636V37H184.749V10.8182H191.67V15.4375H191.977C192.556 13.9148 193.528 12.7102 194.891 11.8239C196.255 10.9261 197.908 10.4773 199.852 10.4773C201.67 10.4773 203.255 10.875 204.607 11.6705C205.96 12.4659 207.011 13.6023 207.761 15.0795C208.511 16.5455 208.886 18.2955 208.886 20.3295V37H201.624V21.625C201.636 20.0227 201.227 18.7727 200.397 17.875C199.567 16.9659 198.425 16.5114 196.971 16.5114C195.994 16.5114 195.13 16.7216 194.38 17.142C193.641 17.5625 193.062 18.1761 192.641 18.983C192.232 19.7784 192.022 20.7386 192.011 21.8636ZM226.404 47.3636C224.052 47.3636 222.035 47.0398 220.353 46.392C218.683 45.7557 217.353 44.8864 216.364 43.7841C215.376 42.6818 214.734 41.4432 214.438 40.0682L221.154 39.1648C221.359 39.6875 221.683 40.1761 222.126 40.6307C222.569 41.0852 223.154 41.4489 223.881 41.7216C224.62 42.0057 225.518 42.1477 226.575 42.1477C228.154 42.1477 229.455 41.7614 230.478 40.9886C231.512 40.2273 232.029 38.9489 232.029 37.1534V32.3636H231.722C231.404 33.0909 230.927 33.7784 230.29 34.4261C229.654 35.0739 228.836 35.6023 227.836 36.0114C226.836 36.4205 225.643 36.625 224.256 36.625C222.29 36.625 220.501 36.1705 218.887 35.2614C217.285 34.3409 216.006 32.9375 215.052 31.0511C214.109 29.1534 213.637 26.7557 213.637 23.858C213.637 20.892 214.12 18.4148 215.086 16.4261C216.052 14.4375 217.336 12.9489 218.938 11.9602C220.552 10.9716 222.319 10.4773 224.239 10.4773C225.705 10.4773 226.933 10.7273 227.921 11.2273C228.91 11.7159 229.705 12.3295 230.308 13.0682C230.921 13.7955 231.393 14.5114 231.722 15.2159H231.995V10.8182H239.205V37.2557C239.205 39.483 238.66 41.3466 237.569 42.8466C236.478 44.3466 234.967 45.4716 233.035 46.2216C231.114 46.983 228.904 47.3636 226.404 47.3636ZM226.558 31.1705C227.728 31.1705 228.717 30.8807 229.523 30.3011C230.342 29.7102 230.967 28.8693 231.398 27.7784C231.842 26.6761 232.063 25.358 232.063 23.8239C232.063 22.2898 231.847 20.9602 231.415 19.8352C230.984 18.6989 230.359 17.8182 229.54 17.1932C228.722 16.5682 227.728 16.2557 226.558 16.2557C225.364 16.2557 224.359 16.5795 223.54 17.2273C222.722 17.8636 222.103 18.75 221.683 19.8864C221.262 21.0227 221.052 22.3352 221.052 23.8239C221.052 25.3352 221.262 26.642 221.683 27.7443C222.114 28.8352 222.734 29.6818 223.54 30.2841C224.359 30.875 225.364 31.1705 226.558 31.1705ZM257.495 37H245.12V2.09091H257.597C261.109 2.09091 264.131 2.78977 266.665 4.1875C269.2 5.57386 271.148 7.56818 272.512 10.1705C273.887 12.7727 274.575 15.8864 274.575 19.5114C274.575 23.1477 273.887 26.2727 272.512 28.8864C271.148 31.5 269.188 33.5057 266.631 34.9034C264.086 36.3011 261.04 37 257.495 37ZM252.501 30.6761H257.188C259.37 30.6761 261.205 30.2898 262.694 29.517C264.194 28.733 265.319 27.5227 266.069 25.8864C266.83 24.2386 267.211 22.1136 267.211 19.5114C267.211 16.9318 266.83 14.8239 266.069 13.1875C265.319 11.5511 264.2 10.3466 262.711 9.57386C261.222 8.80114 259.387 8.41477 257.205 8.41477H252.501V30.6761ZM287.371 37.4943C285.701 37.4943 284.212 37.2045 282.906 36.625C281.599 36.0341 280.565 35.1648 279.803 34.017C279.053 32.858 278.678 31.4148 278.678 29.6875C278.678 28.233 278.945 27.0114 279.479 26.0227C280.013 25.0341 280.741 24.2386 281.661 23.6364C282.582 23.0341 283.627 22.5795 284.798 22.2727C285.979 21.9659 287.218 21.75 288.513 21.625C290.036 21.4659 291.263 21.3182 292.195 21.1818C293.127 21.0341 293.803 20.8182 294.224 20.5341C294.644 20.25 294.854 19.8295 294.854 19.2727V19.1705C294.854 18.0909 294.513 17.2557 293.832 16.6648C293.161 16.0739 292.207 15.7784 290.968 15.7784C289.661 15.7784 288.621 16.0682 287.849 16.6477C287.076 17.2159 286.565 17.9318 286.315 18.7955L279.599 18.25C279.94 16.6591 280.61 15.2841 281.61 14.125C282.61 12.9545 283.9 12.0568 285.479 11.4318C287.07 10.7955 288.911 10.4773 291.002 10.4773C292.457 10.4773 293.849 10.6477 295.178 10.9886C296.519 11.3295 297.707 11.858 298.741 12.5739C299.786 13.2898 300.61 14.2102 301.212 15.3352C301.815 16.4489 302.116 17.7841 302.116 19.3409V37H295.229V33.3693H295.025C294.604 34.1875 294.042 34.9091 293.337 35.5341C292.633 36.1477 291.786 36.6307 290.798 36.983C289.809 37.3239 288.667 37.4943 287.371 37.4943ZM289.451 32.483C290.519 32.483 291.462 32.2727 292.281 31.8523C293.099 31.4205 293.741 30.8409 294.207 30.1136C294.673 29.3864 294.906 28.5625 294.906 27.642V24.8636C294.678 25.0114 294.366 25.1477 293.968 25.2727C293.582 25.3864 293.144 25.4943 292.656 25.5966C292.167 25.6875 291.678 25.7727 291.19 25.8523C290.701 25.9205 290.258 25.983 289.86 26.0398C289.008 26.1648 288.263 26.3636 287.627 26.6364C286.991 26.9091 286.496 27.2784 286.144 27.7443C285.792 28.1989 285.616 28.767 285.616 29.4489C285.616 30.4375 285.974 31.1932 286.69 31.7159C287.417 32.2273 288.337 32.483 289.451 32.483ZM319.579 37.5114C316.931 37.5114 314.641 36.9489 312.71 35.8239C310.789 34.6875 309.306 33.108 308.261 31.0852C307.215 29.0511 306.692 26.6932 306.692 24.0114C306.692 21.3068 307.215 18.9432 308.261 16.9205C309.306 14.8864 310.789 13.3068 312.71 12.1818C314.641 11.0455 316.931 10.4773 319.579 10.4773C322.227 10.4773 324.511 11.0455 326.431 12.1818C328.363 13.3068 329.852 14.8864 330.897 16.9205C331.942 18.9432 332.465 21.3068 332.465 24.0114C332.465 26.6932 331.942 29.0511 330.897 31.0852C329.852 33.108 328.363 34.6875 326.431 35.8239C324.511 36.9489 322.227 37.5114 319.579 37.5114ZM319.613 31.8864C320.817 31.8864 321.823 31.5455 322.63 30.8636C323.437 30.1705 324.045 29.2273 324.454 28.0341C324.874 26.8409 325.085 25.483 325.085 23.9602C325.085 22.4375 324.874 21.0795 324.454 19.8864C324.045 18.6932 323.437 17.75 322.63 17.0568C321.823 16.3636 320.817 16.017 319.613 16.017C318.397 16.017 317.374 16.3636 316.545 17.0568C315.727 17.75 315.107 18.6932 314.687 19.8864C314.278 21.0795 314.073 22.4375 314.073 23.9602C314.073 25.483 314.278 26.8409 314.687 28.0341C315.107 29.2273 315.727 30.1705 316.545 30.8636C317.374 31.5455 318.397 31.8864 319.613 31.8864Z"
          fill="black"/>
</svg>
