<svg width="765" height="716" viewBox="0 0 765 716" fill="none" xmlns="http://www.w3.org/2000/svg">
    <g clip-path="url(#clip0_89_882)">
        <path d="M284.063 157.123C283.97 157.123 283.879 157.095 283.803 157.043C283.727 156.991 283.67 156.918 283.64 156.833C283.609 156.748 283.607 156.657 283.634 156.571C283.661 156.485 283.715 156.41 283.789 156.355C283.846 156.311 289.622 152.135 297.61 155.854C297.713 155.905 297.791 155.994 297.827 156.1C297.863 156.205 297.855 156.321 297.804 156.421C297.754 156.522 297.664 156.599 297.555 156.637C297.446 156.675 297.326 156.671 297.22 156.625C289.745 153.145 284.551 156.873 284.334 157.034C284.256 157.091 284.161 157.122 284.063 157.123Z"
              fill="#B75742"/>
        <path d="M410.336 602.789C246.177 520.387 190.201 434.992 172.382 377.008H277.823C277.216 386.137 274.419 395.008 269.65 402.926C267.363 406.571 266.126 410.733 266.064 414.988C266.002 419.243 267.119 423.438 269.299 427.142C271.48 430.846 274.646 433.928 278.473 436.071C282.301 438.214 286.652 439.342 291.082 439.339C295.512 439.336 299.862 438.202 303.686 436.054C307.511 433.906 310.672 430.82 312.847 427.113C315.022 423.405 316.132 419.21 316.065 414.955C315.997 410.7 314.753 406.538 312.461 402.897C307.702 394.986 304.911 386.126 304.307 377.008H410.337V471.362L412.281 471.195C421.746 470.372 430.912 467.579 439.14 463.012C442.389 461.119 446.103 460.09 449.903 460.03C453.702 459.971 457.449 460.882 460.761 462.671C464.072 464.461 466.829 467.063 468.749 470.213C470.668 473.363 471.682 476.946 471.685 480.596C471.688 484.245 470.681 487.83 468.767 490.983C466.853 494.136 464.1 496.743 460.792 498.538C457.483 500.332 453.738 501.25 449.938 501.196C446.139 501.142 442.423 500.119 439.171 498.232C430.934 493.655 421.758 490.857 412.281 490.03L410.337 489.864L410.336 602.789Z"
              fill="#F7CC7F"/>
        <path d="M413.908 493.644C422.175 494.595 430.153 497.16 437.349 501.183C441.143 503.379 445.477 504.567 449.907 504.626C454.337 504.685 458.703 503.613 462.56 501.518C466.416 499.424 469.624 496.383 471.855 492.707C474.086 489.03 475.26 484.85 475.256 480.595C475.253 476.34 474.073 472.162 471.836 468.488C469.6 464.815 466.387 461.779 462.528 459.69C458.668 457.601 454.3 456.534 449.871 456.599C445.441 456.664 441.109 457.859 437.318 460.061C430.13 464.075 422.164 466.634 413.908 467.581V377.008H538.76L538.818 375.349C539.227 363.638 536.197 352.053 530.075 341.917C528.105 338.796 527.034 335.229 526.972 331.579C526.909 327.93 527.858 324.33 529.721 321.149C531.584 317.968 534.294 315.32 537.573 313.476C540.852 311.633 544.583 310.659 548.382 310.656C552.182 310.653 555.914 311.621 559.196 313.459C562.479 315.298 565.193 317.942 567.061 321.12C568.93 324.298 569.885 327.896 569.829 331.545C569.773 335.195 568.708 338.764 566.743 341.888C560.611 352.031 557.576 363.627 557.984 375.349L558.041 377.008H651.861C634.043 434.992 578.069 520.387 413.908 602.789V493.644Z"
              fill="#50BFA5"/>
        <path d="M413.462 603.497V493.163L413.962 493.221C422.289 494.179 430.324 496.763 437.573 500.814C441.299 502.972 445.555 504.14 449.906 504.199C454.257 504.257 458.545 503.205 462.333 501.148C466.121 499.092 469.272 496.106 471.464 492.496C473.656 488.885 474.81 484.78 474.807 480.601C474.805 476.421 473.646 472.318 471.45 468.71C469.254 465.102 466.099 462.119 462.309 460.067C458.518 458.015 454.228 456.967 449.878 457.031C445.527 457.094 441.272 458.267 437.549 460.429C430.307 464.475 422.28 467.054 413.962 468.008L413.462 468.066V376.58H538.328L538.371 375.336C538.777 363.705 535.769 352.199 529.689 342.133C527.679 338.946 526.587 335.304 526.525 331.579C526.463 327.854 527.433 324.18 529.336 320.934C531.238 317.688 534.005 314.985 537.353 313.104C540.7 311.223 544.508 310.23 548.387 310.228C552.265 310.226 556.075 311.214 559.425 313.091C562.775 314.969 565.545 317.668 567.452 320.912C569.358 324.156 570.333 327.829 570.275 331.554C570.218 335.279 569.13 338.922 567.125 342.111C561.039 352.183 558.027 363.697 558.431 375.336L558.473 376.58H652.459L652.29 377.13C634.639 434.568 578.989 520.409 414.116 603.17L413.462 603.497ZM414.355 494.129V602.079C577.918 519.823 633.5 434.635 651.263 377.436H557.609L557.538 375.362C557.129 363.561 560.185 351.886 566.356 341.674C568.281 338.616 569.325 335.121 569.381 331.548C569.437 327.974 568.502 324.451 566.674 321.339C564.845 318.227 562.188 315.638 558.975 313.837C555.761 312.036 552.107 311.088 548.387 311.09C544.666 311.092 541.014 312.045 537.802 313.85C534.591 315.655 531.938 318.247 530.113 321.361C528.289 324.476 527.359 328 527.42 331.573C527.48 335.146 528.529 338.64 530.458 341.696C536.624 351.903 539.675 363.57 539.264 375.364L539.192 377.438H414.355V467.096C422.373 466.111 430.105 463.593 437.094 459.69C440.953 457.45 445.363 456.235 449.872 456.17C454.38 456.104 458.826 457.191 462.754 459.318C466.682 461.445 469.952 464.536 472.227 468.276C474.503 472.015 475.703 476.268 475.706 480.599C475.708 484.931 474.513 489.185 472.241 492.927C469.97 496.668 466.704 499.763 462.779 501.894C458.853 504.026 454.408 505.117 449.899 505.056C445.391 504.995 440.979 503.785 437.118 501.549C430.122 497.641 422.382 495.119 414.355 494.131V494.129Z"
              fill="#96D9C9"/>
        <path d="M291.064 435.913C287.266 435.912 283.536 434.942 280.256 433.101C276.976 431.261 274.265 428.616 272.399 425.438C270.533 422.26 269.579 418.663 269.636 415.015C269.693 411.366 270.758 407.798 272.722 404.675C278.11 395.741 281.118 385.667 281.482 375.348L281.543 373.577H171.362C166.787 357.855 164.437 341.613 164.375 325.288C164.375 288.346 176.549 253.802 198.653 228.017C221.417 201.464 252.919 186.839 287.355 186.839C329.581 186.839 360.822 203.746 379.593 217.928C398.155 231.952 408.539 246.154 410.336 248.715V292.35C402.802 291.231 395.553 288.768 388.962 285.088C385.167 282.892 380.834 281.704 376.404 281.645C371.974 281.586 367.608 282.658 363.751 284.753C359.895 286.847 356.687 289.888 354.456 293.564C352.225 297.241 351.051 301.42 351.054 305.676C351.058 309.931 352.238 314.109 354.474 317.783C356.71 321.456 359.923 324.493 363.782 326.582C367.642 328.671 372.01 329.738 376.439 329.673C380.869 329.608 385.201 328.413 388.992 326.212C395.574 322.539 402.813 320.081 410.336 318.965V373.578H300.586L300.646 375.35C301.009 385.657 304.011 395.72 309.389 404.646C311.36 407.768 312.431 411.338 312.492 414.989C312.554 418.64 311.604 422.241 309.739 425.423C307.874 428.605 305.162 431.253 301.88 433.097C298.599 434.94 294.866 435.912 291.064 435.913V435.913Z"
              fill="#F47458"/>
        <path d="M287.944 177.712C282.903 178.495 283.201 179.283 282.553 179.366C281.786 179.465 272.687 175.088 272.687 175.088C272.687 175.088 245.776 162.366 244.347 161.628L224.922 138.22L209.952 144.833C209.952 144.833 231.798 169.72 233.181 170.816C234.565 171.912 273.151 184.871 276.507 186.123C276.507 186.123 279.891 189.085 282.079 190.874C284.268 192.663 287.196 193.372 287.895 193.78C289.775 194.685 291.768 195.354 293.825 195.771C296.766 196.386 294.315 194.471 294.315 194.471C294.315 194.471 289.113 192.368 289.369 191.987C289.566 191.694 292.331 193.01 295.577 193.721C296.411 193.904 297.236 194.081 297.994 194.239C299.986 194.651 300.861 193.559 298.859 192.799C297.955 192.445 297.023 192.156 296.073 191.935C295.108 191.742 294.298 191.257 293.517 190.972C291.967 190.407 290.827 190.015 290.889 189.962C290.969 189.896 290.752 189.567 291.643 189.734C292.716 189.935 294.882 190.86 296.49 191.034C297.402 191.133 299.288 191.454 299.288 191.454C299.288 191.454 302.626 191.761 302.65 191.311C302.699 190.332 300.644 189.784 299.381 189.81C298.479 189.489 297.542 189.264 296.589 189.139C296.589 189.139 292.716 187.675 292.941 187.127C293.033 186.907 295.375 187.244 297.863 187.407C300.493 187.58 302.397 187.579 302.538 187.092C302.76 186.318 300.667 186.025 300.667 186.025C300.667 186.025 298.822 185.767 298.218 185.635C297.509 185.48 295.429 184.857 295.429 184.857C295.429 184.857 288.306 182.351 288.564 181.847C288.821 181.343 289.997 180.29 290.499 180.293C291.001 180.296 291.9 180.776 292.402 180.779C292.904 180.781 293.984 180.688 294.059 180.082C294.134 179.477 291.346 178.224 291.346 178.224C291.346 178.224 289.4 177.486 287.944 177.712Z"
              fill="#F8A492"/>
        <path d="M238.44 152.718C238.44 152.718 233.593 156.935 231.578 158.323C229.903 159.477 221.737 163.242 221.737 163.242C221.737 163.242 213.613 151.328 210.061 145.352C205.75 138.105 202.766 127.323 203.785 127.031C206.644 126.211 210.577 125.709 214.211 127.306C226.78 132.833 238.44 152.718 238.44 152.718Z"
              fill="#3C8F7C"/>
        <path d="M283.237 183.939C285.394 184.265 287.599 183.872 288.554 181.982C288.769 184.224 285.22 185.339 283.237 183.939Z"
              fill="#FE875E"/>
        <path d="M159.116 334.423C159.116 334.423 158.579 343.546 158.576 343.565C158.378 344.723 157.6 347.584 157.6 348.638C157.6 352.593 175.922 345.28 171.816 343.527C171.444 343.368 169.497 342.168 169.375 340.822C169.186 338.748 168.709 334.552 168.709 334.552L159.116 334.423Z"
              fill="#F7A491"/>
        <path d="M171.77 343.489C169.63 344.099 167.459 344.603 165.266 345.002C163.063 345.304 160.158 342.757 158.6 343.445C156.884 344.202 156.954 351.019 156.954 351.019C156.954 351.019 180.021 352.959 186.508 350.952C189.075 350.156 180.565 346.308 171.77 343.489Z"
              fill="#184655"/>
        <path d="M129.67 333.874C129.67 333.874 129.132 342.996 129.13 343.015C128.932 344.173 128.153 347.035 128.153 348.088C128.153 352.043 146.475 344.73 142.369 342.977C141.998 342.819 139.473 340.723 139.351 339.376C139.163 337.301 139.259 334.001 139.259 334.001L129.67 333.874Z"
              fill="#F7A491"/>
        <path d="M142.323 342.939C140.183 343.549 138.012 344.054 135.819 344.452C133.616 344.755 130.711 342.207 129.153 342.896C127.438 343.653 127.369 350.469 127.369 350.469C127.369 350.469 150.273 351.37 157.059 350.402C159.729 350.021 151.118 345.758 142.323 342.939Z"
              fill="#184655"/>
        <path d="M133.819 189.984C133.819 189.984 130.714 205.372 131.979 217.04C133.244 228.708 133.344 270.158 133.344 270.158L128.515 336.478L139.973 336.734C139.973 336.734 153.559 270.447 153.305 272.149C153.051 273.85 157.861 225.476 157.861 225.476L141.664 188.527L133.819 189.984Z"
              fill="#184655"/>
        <path d="M138.162 180.045C138.162 180.045 124.096 194.236 129.328 209.737C131.432 215.964 151.035 275.443 151.288 280.305C151.541 285.166 157.918 338.903 157.918 338.903L171.242 338.518L174.123 278.773L170.315 198.275L162.228 184.699L138.162 180.045Z"
              fill="#355389"/>
        <path d="M223.565 134.021C218.959 129.099 208.933 121.93 208.933 121.93C208.933 121.93 202.961 117.044 200.525 116.24C196.942 115.056 190.804 111.899 181.926 124.787C175.573 134.01 135.483 181.761 128.902 183.369L171.877 203.061C173.053 193.655 194.294 175.887 197.351 172.572C204.183 165.161 227.925 138.681 223.565 134.021Z"
              fill="#50BFA5"/>
        <path d="M221.561 113.849L208.174 121.356C208.174 121.356 207.798 132.3 212.174 135.143C215.846 137.529 218.641 131.805 218.641 131.805C218.641 131.805 223.619 125.198 227.4 123.139C231.181 121.081 221.561 113.849 221.561 113.849Z"
              fill="#F7A491"/>
        <path d="M219.315 118.665C219.981 121.6 221.156 124.407 222.79 126.969C224.265 125.44 225.923 123.941 227.4 123.136C229.145 122.187 228.035 120.136 226.334 118.201C223.932 115.806 221.561 113.848 221.561 113.848L218.989 115.29C218.823 116.226 219.147 117.906 219.315 118.665Z"
              fill="#F47458"/>
        <path d="M228.534 95.0372C228.309 94.7706 217.305 107.891 218.661 114.045C220.018 120.199 226.671 125.816 231.295 124.27C236.409 122.562 245.918 107.116 242.508 99.617C239.098 92.1176 228.534 95.0372 228.534 95.0372Z"
              fill="#F7A491"/>
        <path d="M240.583 90.8988C235.786 88.3425 227.963 87.6094 222.114 90.5412C214.925 94.1464 213.289 103.217 215.539 108.749C217.788 114.281 215.212 117.409 215.212 117.409L219.025 115.276C219.025 115.276 221.252 111.946 221.543 109.293C221.834 106.639 225.877 107.108 227.85 105.905C229.37 104.978 231.309 101.966 233.768 100.403C233.768 100.403 239.958 99.6754 243.002 101.312C248.192 104.102 247.454 94.5597 240.583 90.8988Z"
              fill="#13375B"/>
        <path d="M261.837 197.033C256.579 196.423 256.588 196.829 255.916 196.734C255.121 196.621 246.948 189.885 246.948 189.885C246.948 189.885 222.727 170.181 221.457 169.074L208.166 140.868L190.621 143.371C190.621 143.371 206.975 176.531 208.118 177.974C209.261 179.417 245.192 199.538 248.288 201.668C248.288 201.668 251.024 205.471 252.824 207.808C254.623 210.145 257.41 211.632 258.022 212.219C259.708 213.611 261.562 214.803 263.544 215.771C266.367 217.167 264.333 214.638 264.333 214.638C264.333 214.638 259.57 211.176 259.914 210.875C260.179 210.643 262.666 212.676 265.774 214.252C266.574 214.657 267.363 215.054 268.092 215.413C270.005 216.356 271.135 215.531 269.291 214.247C268.461 213.657 267.589 213.122 266.681 212.648C265.752 212.198 265.046 211.506 264.324 211.016C262.89 210.043 261.912 209.408 261.985 209.375C262.08 209.331 261.855 208.897 262.717 209.302C263.752 209.79 265.723 211.279 267.303 211.886C268.197 212.23 270.026 213.055 270.026 213.055C270.026 213.055 272.723 213.386 272.826 213.237C273.375 212.428 271.771 211.799 270.494 211.48C269.66 210.923 268.768 210.45 267.833 210.068C267.833 210.068 264.266 207.589 264.616 207.116C264.75 206.935 266.852 208.311 269.426 209.234C272.374 210.291 273.788 209.717 274.049 209.263C274.449 208.57 272.65 208.145 272.65 208.145C271.616 207.916 270.598 207.627 269.601 207.278C268.922 206.934 261.033 201.207 261.407 200.787C261.781 200.366 262.996 200.362 263.501 200.502C264.006 200.641 264.901 200.989 265.406 201.128C265.912 201.268 266.797 200.705 267.01 200.137C267.223 199.568 265.333 198.535 265.333 198.535C265.333 198.535 263.355 197.209 261.837 197.033Z"
              fill="#F8A492"/>
        <path d="M193.407 157.079C193.407 157.079 198.454 155.541 201.692 154.121C203.86 153.17 213.319 148.662 213.319 148.662C213.319 148.662 209.242 132.186 206.485 126.261C196.368 104.519 184.871 119.514 183.311 123.011C179.822 130.827 193.407 157.079 193.407 157.079Z"
              fill="#96D9C9"/>
        <path d="M561.521 373.577C561.461 363.065 564.324 352.729 569.816 343.637C572.102 339.993 573.339 335.83 573.4 331.576C573.461 327.321 572.344 323.127 570.164 319.423C567.984 315.719 564.818 312.638 560.991 310.495C557.164 308.353 552.813 307.225 548.383 307.228C543.953 307.231 539.604 308.364 535.779 310.512C531.955 312.66 528.794 315.745 526.619 319.452C524.444 323.159 523.334 327.354 523.401 331.609C523.468 335.863 524.711 340.024 527.002 343.666C532.484 352.751 535.342 363.077 535.279 373.577H413.908V315.055L411.906 315.29C403.183 316.306 394.766 319.017 387.17 323.259C383.921 325.151 380.206 326.18 376.407 326.24C372.608 326.3 368.861 325.388 365.549 323.599C362.237 321.809 359.48 319.206 357.561 316.057C355.641 312.907 354.628 309.323 354.625 305.674C354.622 302.024 355.629 298.439 357.543 295.286C359.457 292.133 362.21 289.526 365.519 287.731C368.827 285.937 372.573 285.02 376.372 285.073C380.172 285.127 383.888 286.15 387.14 288.038C394.745 292.288 403.171 295.005 411.906 296.023L413.908 296.259V248.715C415.705 246.154 426.088 231.952 444.651 217.928C463.422 203.746 494.663 186.839 536.888 186.839C571.325 186.839 602.826 201.464 625.591 228.017C647.694 253.802 659.868 288.346 659.868 325.288C659.806 341.613 657.456 357.855 652.882 373.577H561.521Z"
              fill="#9BC1F9"/>
        <path d="M653.654 449.719H617.284C616.856 449.719 616.432 449.638 616.036 449.481C615.64 449.323 615.28 449.092 614.977 448.802C614.675 448.511 614.434 448.165 614.27 447.785C614.106 447.405 614.022 446.998 614.022 446.586C614.022 446.175 614.106 445.767 614.27 445.387C614.434 445.007 614.675 444.661 614.977 444.37C615.28 444.08 615.64 443.849 616.036 443.691C616.432 443.534 616.856 443.453 617.284 443.453H653.654C654.083 443.453 654.507 443.534 654.903 443.691C655.299 443.849 655.658 444.08 655.961 444.37C656.264 444.661 656.505 445.007 656.669 445.387C656.833 445.767 656.917 446.175 656.917 446.586C656.917 446.998 656.833 447.405 656.669 447.785C656.505 448.165 656.264 448.511 655.961 448.802C655.658 449.093 655.299 449.323 654.903 449.481C654.507 449.638 654.083 449.719 653.654 449.719Z"
              fill="#355389"/>
        <path d="M657.227 454.663H613.712C613.284 454.664 612.859 454.583 612.464 454.425C612.068 454.268 611.708 454.037 611.405 453.746C611.102 453.455 610.862 453.11 610.698 452.73C610.534 452.349 610.45 451.942 610.45 451.53C610.45 451.119 610.534 450.711 610.698 450.331C610.862 449.951 611.102 449.606 611.405 449.315C611.708 449.024 612.068 448.793 612.464 448.636C612.86 448.478 613.284 448.397 613.712 448.397H657.227C658.092 448.397 658.922 448.727 659.534 449.315C660.146 449.902 660.49 450.699 660.49 451.53C660.49 451.942 660.405 452.349 660.241 452.73C660.077 453.11 659.837 453.455 659.534 453.746C659.231 454.037 658.871 454.268 658.476 454.425C658.08 454.583 657.656 454.664 657.227 454.663Z"
              fill="#466EB6"/>
        <path d="M529.633 663.183C529.633 663.183 526.283 666.365 526.207 667.531C526.131 668.698 525.911 681.211 527.278 682.377C528.644 683.543 532.663 684.373 531.371 685.687C530.395 686.679 522.886 686.468 517.91 686.201C516.456 686.123 514.635 674.838 514.06 673.18C513.224 670.771 510.214 665.528 510.973 663.849C511.343 663.031 514.093 661.166 516.588 659.597C519.213 657.947 521.724 654.272 521.724 654.272L529.633 663.183Z"
              fill="#F7A491"/>
        <path d="M574.444 671C574.444 671 571.446 679.244 571.442 679.265C571.22 680.572 570.342 683.799 570.342 684.986C570.342 689.447 591.006 681.199 586.375 679.223C585.955 679.044 584.642 677.615 584.503 676.096C584.291 673.757 586.243 670.822 586.243 670.822L574.444 671Z"
              fill="#F7A491"/>
        <path d="M602.961 514.459L610.442 533.069C610.442 533.069 615.322 577.483 612.481 604.07C611.292 615.189 585.558 674.711 585.558 674.711L572.776 672.956L589.897 602.472L583.596 575.517L574.682 522.238L602.961 514.459Z"
              fill="#13375B"/>
        <path d="M567.718 515.429L561.299 536.152L551.537 598.697L518.525 657.206C518.525 657.206 523.489 664.526 528.819 665.678L575.675 606.544L601.069 532.515L600.178 516.068L567.718 515.429Z"
              fill="#466EB6"/>
        <path d="M666.249 480.928C662.408 482.601 662.799 483.294 662.302 483.492C661.713 483.726 653.622 481.256 653.622 481.256C653.622 481.256 629.741 474.161 628.463 473.725L608.394 455.115L597.835 464.149C597.835 464.149 620.118 483.714 621.43 484.498C622.742 485.282 655.936 490.449 658.846 491.015C658.846 491.015 662.12 493.199 664.213 494.491C666.306 495.783 668.769 495.915 669.404 496.173C671.054 496.68 672.773 496.948 674.505 496.967C676.96 497.005 674.635 495.643 674.635 495.643C674.635 495.643 670.089 494.609 670.217 494.202C670.315 493.887 672.77 494.624 675.486 494.7C676.185 494.719 676.874 494.735 677.507 494.744C679.169 494.767 679.647 493.57 677.907 493.218C677.124 493.05 676.327 492.948 675.525 492.914C674.722 492.91 673.982 492.599 673.306 492.474C672.532 492.374 671.768 492.217 671.019 492.003C671.069 491.925 670.832 491.654 671.573 491.647C672.464 491.64 674.366 492.118 675.675 491.986C676.417 491.911 677.978 491.867 677.978 491.867C677.978 491.867 680.498 491.472 680.514 491.296C680.598 490.356 678.721 490.033 677.724 490.291C676.95 490.153 676.161 490.112 675.375 490.17C675.375 490.17 672.013 489.497 672.083 488.935C672.14 488.474 680.444 488.256 680.472 487.306C680.494 486.531 677.993 486.464 677.993 486.464C677.993 486.464 676.478 486.56 675.972 486.547C675.378 486.53 673.606 486.323 673.606 486.323C673.606 486.323 667.457 485.262 667.561 484.737C667.664 484.212 668.388 482.995 668.787 482.905C669.186 482.816 669.994 483.105 670.393 483.014C670.644 482.926 670.858 482.761 671.001 482.544C671.144 482.327 671.208 482.071 671.184 481.815C671.123 481.228 669.047 480.788 669.047 480.788C669.047 480.788 667.358 480.445 666.249 480.928Z"
              fill="#F8A492"/>
        <path d="M615.611 459.838L605.566 472.944C605.566 472.944 596.688 462.722 592.696 457.587C587.852 451.359 582.545 442.738 583.329 442.272C585.548 440.958 588.298 439.569 591.536 440.378C602.741 443.175 615.611 459.838 615.611 459.838Z"
              fill="#FAE0B2"/>
        <path d="M516.751 659.521C516.751 659.521 523.807 680.274 526.829 681.296C527.631 681.567 532.146 682.666 532.872 684.324C532.892 684.372 532.907 684.421 532.918 684.472C532.963 684.722 532.95 684.979 532.88 685.224C532.81 685.469 532.684 685.697 532.512 685.89C532.34 686.083 532.125 686.237 531.884 686.341C531.642 686.445 531.38 686.497 531.115 686.492H516.78C516.78 686.492 514.744 677.167 513.94 673.07C513.94 673.07 509.681 663.059 510.154 662.149C510.627 661.24 516.751 659.521 516.751 659.521Z"
              fill="#184655"/>
        <path d="M569.168 686.458L571.474 679.18C571.474 679.18 576.504 681.227 578.988 680.886C581.472 680.545 586.324 679.18 586.324 679.18C596.242 682.359 604.367 683.901 602.889 686.458H569.168Z"
              fill="#184655"/>
        <path d="M663.184 487.277C664.085 487.274 664.968 487.036 665.739 486.589C666.51 486.141 667.14 485.501 667.562 484.737C667.171 487.127 664.807 488.122 663.184 487.277Z"
              fill="#FE875E"/>
        <path d="M570.282 439.984C570.282 439.984 558.293 441.202 554.283 442.55C550.936 443.676 546.399 454.19 546.399 454.19C546.399 454.19 564.568 504.638 563.855 513.658C563.142 522.679 561.121 536.037 561.121 536.037C561.121 536.037 596.899 538.206 610.45 533.067C610.45 533.067 606.17 512.631 606.17 507.265C606.17 501.898 603.767 448.26 602.055 445.451C600.343 442.642 596.897 441.043 590.359 439.673C583.821 438.303 570.282 439.984 570.282 439.984Z"
              fill="#F7CC7F"/>
        <path d="M572.669 424.973L570.282 439.984C570.282 439.984 577.461 447.934 582.664 446.386C587.03 445.086 585.882 439.193 585.882 439.193C585.882 439.193 583.504 430.699 584.217 426.449C584.929 422.199 572.669 424.973 572.669 424.973Z"
              fill="#F7A491"/>
        <path d="M584.217 426.449C584.93 422.199 572.669 424.973 572.669 424.973L572.471 426.217C572.78 426.985 573.23 427.694 573.8 428.31C576.644 431.089 580.47 432.741 584.522 432.94C584.151 430.649 583.923 428.192 584.217 426.449Z"
              fill="#FE875E"/>
        <path d="M570.657 403.736C570.311 403.615 567.879 420.832 572.493 425.57C577.107 430.307 586.096 431.858 589.32 428.127C592.887 423.998 592.707 405.495 585.535 400.622C578.362 395.749 570.657 403.736 570.657 403.736Z"
              fill="#F7A491"/>
        <path d="M582.804 391.411C578.793 392.231 575.142 394.218 572.348 397.102C569.831 397.386 566.409 398.713 562.876 404.296C558.532 411.16 561.739 418.764 566.797 422.495C571.854 426.226 571.785 430.525 571.785 430.525L572.583 428.307C573.186 426.621 573.402 424.829 573.217 423.056C573.122 421.968 572.846 420.903 572.399 419.899C571.183 417.408 575.011 415.752 576.086 413.679C576.912 412.083 576.952 408.431 578.255 405.792L579.81 403.778C579.81 403.778 583.399 401.113 586.91 401.866C590.421 402.618 589.917 390.028 582.804 391.411Z"
              fill="#13375B"/>
        <path d="M575.85 416.742C575.886 418.844 574.885 420.564 573.614 420.583C572.343 420.603 571.282 418.918 571.247 416.818C571.212 414.717 572.211 412.996 573.482 412.977C574.753 412.957 575.813 414.642 575.85 416.742Z"
              fill="#F7A491"/>
        <path d="M592.068 512.855H664.278V452.686H592.068V512.855Z" fill="#B75742"/>
        <path d="M637.003 512.855H699.643V452.686H637.003V512.855Z" fill="#F47458"/>
        <path d="M635.777 511.578C632.09 510.551 589.863 500.16 588.272 499.156C586.68 498.153 560.598 474.746 560.598 474.746L575.538 467.153L598.888 489.244C600.482 489.886 630.388 500.812 630.388 500.812C630.388 500.812 639.529 504.393 640.324 504.244C640.997 504.118 641.566 503.539 646.775 502.423C648.28 502.102 650.419 502.712 650.419 502.712C650.419 502.712 653.043 503.481 653.039 504.091C653.006 504.379 652.868 504.648 652.65 504.849C652.433 505.051 652.148 505.172 651.847 505.193C651.318 505.223 650.312 504.804 649.784 504.834C649.255 504.864 648.147 505.994 647.939 506.514C647.813 506.83 655.21 512.021 655.573 512.728C655.743 512.892 664.613 512.311 664.248 512.855C664.245 513.73 663.191 513.477 663.184 513.601C663.047 515.933 650.483 517.668 649.623 517.435C648.188 517.045 635.777 511.578 635.777 511.578Z"
              fill="#F8A492"/>
        <path d="M568.64 485.522L585.753 474.761C585.753 474.761 565.932 445.888 559.167 442.907C554.508 440.854 548.709 443.951 546.437 451.54C543.969 459.78 568.64 485.522 568.64 485.522Z"
              fill="#FAE0B2"/>
        <path d="M693.385 466.283L690.482 468.956V453.343C690.482 452.566 690.161 451.82 689.589 451.271C689.016 450.721 688.24 450.413 687.431 450.413H662.053C661.652 450.413 661.255 450.488 660.885 450.636C660.515 450.783 660.178 450.999 659.895 451.271C659.611 451.543 659.387 451.866 659.233 452.221C659.08 452.577 659.001 452.958 659.001 453.343V471.488L655.875 466.283L645.157 469.286C645.157 469.286 653.754 485.01 659.001 487.573C666.014 491.005 683.429 490.928 690.482 487.573C694.774 485.533 702.093 472.944 702.093 472.944L693.385 466.283Z"
              fill="#86B1F2"/>
        <path d="M683.728 489.447C683.231 484.044 679.447 479.847 674.854 479.847C670.243 479.847 666.448 484.077 665.973 489.506C671.861 490.342 677.846 490.322 683.728 489.447Z"
              fill="#355389"/>
        <path d="M532.576 51.019C529.99 55.2422 525.37 55.0713 520.412 56.2559C517.084 57.0509 515.038 62.3098 515.356 66.2879C516.163 76.3638 507.943 74.653 501.326 78.8244C485.481 88.8142 495.702 114.885 513.016 116.566C516.485 116.903 520.432 116.36 523.507 114.702C525.97 113.373 527.717 111.671 530.507 110.722C536.345 108.737 542.843 108.048 547.506 103.738C554.183 97.5702 548.65 94.558 550.373 90.0682C552.096 85.5784 559.518 87.8281 560.93 78.5292C562.458 68.4678 560.784 59.7965 556.921 54.7994C550.526 46.5318 539.297 45.9709 535.203 48.4781C534.128 49.1112 533.227 49.9825 532.576 51.019Z"
              fill="#F47458"/>
        <path d="M605.306 69.8975C604.691 68.6475 599.209 72.3475 597.994 71.643C596.779 70.9385 602.904 65.008 602.279 63.9714C601.129 62.0617 595.156 70.0706 594.568 69.2242C593.98 68.3778 599.716 59.8269 597.668 59.3565C595.621 58.886 592.684 68.8192 591.632 68.1801C590.581 67.5411 595.228 59.1795 593.246 57.4739C592.186 56.563 587.19 72.7332 585.378 73.4052C583.565 74.0772 581.525 67.0166 579.82 67.2946C578.114 67.5727 585.412 80.2787 585.055 81.2709C584.698 82.2631 578.013 103.006 574.069 109.272C571.695 108.181 569.382 107.085 567.178 106.016C566.291 110.827 566.195 115.892 565.029 120.615C572.683 123.846 579.513 126.191 581.737 125.402C588.505 123.009 591.846 91.4425 592.933 85.5529C594.02 79.6633 596.915 78.502 598.564 75.4068C600.213 72.3115 605.921 71.148 605.306 69.8975Z"
              fill="#F48C7F"/>
        <path d="M548.698 96.4805L537.366 107.458C537.366 107.458 552.335 115.256 565.031 120.615C566.195 115.892 566.291 110.827 567.18 106.016C556.689 100.929 548.698 96.4805 548.698 96.4805Z"
              fill="#F7CC7F"/>
        <path d="M619.377 218.401C622.727 222.221 625.727 226.312 628.345 230.627C628.534 230.975 628.608 232.983 628.794 233.35C636.528 238.238 644.723 236.882 651.45 234.869C647.02 233.027 640.855 230.894 640.277 230.004C639.357 228.585 635.138 223.443 630.79 214.199C627.322 217.511 624.056 217.129 619.377 218.401Z"
              fill="#F7A491"/>
        <path d="M628.426 230.896C627.749 233.862 628.02 239.884 628.633 240.016C629.365 240.174 655.332 243.857 658.657 240.655C660.655 238.729 656.882 237.249 651.45 234.868C644.723 236.881 628.675 232.908 628.426 230.896Z"
              fill="#F47458"/>
        <path d="M621.581 240.902C624.93 244.722 627.931 248.813 630.549 253.128C630.738 253.477 630.811 255.485 630.998 255.851C638.733 260.739 646.926 259.383 653.653 257.369C649.226 255.528 643.059 253.395 642.481 252.505C641.561 251.086 637.343 245.943 632.994 236.699C629.528 240.01 626.259 239.628 621.581 240.902Z"
              fill="#F7A491"/>
        <path d="M630.629 253.396C629.953 256.361 630.224 262.383 630.837 262.515C631.568 262.673 657.536 266.356 660.861 263.155C662.859 261.229 659.086 259.747 653.654 257.367C646.926 259.381 630.88 255.406 630.629 253.396Z"
              fill="#F47458"/>
        <path d="M634.272 218.138L620.774 222.63L548.083 164.707C548.083 164.707 565.821 164.487 597.612 167.609C607.117 168.542 634.272 218.138 634.272 218.138Z"
              fill="#3C8F7C"/>
        <path d="M520.794 159.9C520.794 159.9 518.854 164.8 518.609 167.47C517.818 176.109 522.466 187.084 527.473 188.763C532.608 190.485 564.156 198.941 583.16 196.368L624.346 249.104L638.078 243.313L605.91 189.053C605.91 189.053 599.711 179.709 594.613 177.512C589.515 175.314 548.083 164.707 548.083 164.707L541.67 155.75L520.794 159.9Z"
              fill="#50BFA5"/>
        <path d="M554.284 105.229C552.875 102.735 551.332 100.314 549.662 97.9734C547.3 93.9277 541.202 91.8813 541.202 91.8813C541.202 91.8813 539.161 91.9213 536.818 92.032C536.736 92.3126 536.584 92.5699 536.376 92.7817C535.495 93.4186 530.449 92.5968 527.189 94.7297C516.263 103.757 519.285 147.508 520.144 161.328L546.687 162.265C546.687 162.265 549.224 131.897 555.985 124.258C560.691 118.938 557.661 111.228 554.284 105.229Z"
              fill="#FAE0B2"/>
        <path d="M539.285 77.0798C539.285 77.0798 537.456 89.6698 536.176 92.7286C534.895 95.7874 543.2 102.331 550.108 104.317C557.016 106.303 547.997 97.5592 548.283 94.2887C548.569 91.0182 549.825 75.5337 549.825 75.5337L539.285 77.0798Z"
              fill="#F7A491"/>
        <path d="M549.478 79.9743L549.827 75.5332L539.285 77.0798C539.285 77.0798 539.019 78.5591 538.725 80.6502C542.999 83.0401 546.843 82.2855 549.478 79.9743Z"
              fill="#F47458"/>
        <path d="M542.59 54.0844C539.84 54.8233 537.457 56.4817 535.868 58.7604C533.302 62.5343 531.541 73.6432 539.992 78.8292C548.443 84.0152 555.015 76.677 555.124 69.525C555.233 62.3731 553.643 52.8242 542.59 54.0844Z"
              fill="#F7A491"/>
        <path d="M557.059 67.2858C556.338 69.012 554.909 70.0837 553.864 69.6792C552.819 69.2747 552.559 67.5463 553.28 65.8201C554.001 64.094 555.432 63.0227 556.476 63.4272C557.519 63.8317 557.78 65.5619 557.059 67.2858Z"
              fill="#F7A491"/>
        <path d="M535.734 68.705C536.348 70.5651 535.787 72.3945 534.482 72.7951C533.177 73.1957 531.624 72.0102 531.01 70.1505C530.397 68.2908 530.959 66.461 532.263 66.0604C533.568 65.6598 535.122 66.8453 535.734 68.705Z"
              fill="#F7A491"/>
        <path d="M570.735 110.007C570.735 110.007 573.577 110.081 574.386 110.007C579.046 109.577 577.112 116.19 577.112 116.19C577.112 116.19 574.836 114.048 573.923 114.048C573.191 114.073 572.462 114.153 571.742 114.286L570.735 110.007Z"
              fill="#13375B"/>
        <path d="M586.517 154.192C586.517 154.192 588.438 157.056 590.59 155.768C592.743 154.481 596.465 151.984 597.16 153.863C597.854 155.743 597.716 157.309 596.964 157.685C596.211 158.061 590.647 160.966 587.635 161.163C584.624 161.36 582.122 158.616 582.122 158.616L586.517 154.192Z"
              fill="#B75742"/>
        <path d="M591.017 160.674C590.92 158.408 590.455 155.898 589.166 153.758C585.869 148.282 571.951 133.524 569.882 132.378C567.821 131.224 569.303 126.785 569.303 126.785L561.05 122.505L556.752 120.273C556.752 120.273 547.008 134.56 546.263 135.909C545.518 137.258 546.839 141.673 545.852 144.392C544.884 147.106 545.89 161.852 544.493 163.472C543.401 164.52 542.383 164.669 542.045 165.3C541.917 165.488 541.853 165.711 541.862 165.936C541.872 166.161 541.954 166.377 542.098 166.555C543.218 167.935 548.928 166.775 548.928 166.775C548.97 166.69 551.322 163.514 550.956 161.626C550.588 159.798 551.755 148.796 552.543 148.796C553.236 148.796 556.528 153.686 557.84 154.617V154.625C557.942 154.71 558.066 154.766 558.2 154.785C559.147 154.785 565.242 156.074 566.584 157.363C566.943 157.708 567.084 158.637 567.093 159.797C567.11 160.572 567.066 161.449 566.996 162.341C566.864 163.976 566.628 165.652 566.461 166.755C567.908 166.767 569.362 166.768 570.812 166.761C572.005 164.693 574.522 163.268 577.433 163.268C578.687 163.242 579.928 163.515 581.045 164.062C582.163 164.61 583.121 165.415 583.835 166.406C586.268 166.28 587.211 167.421 589.297 167.23C589.41 166.531 591.052 161.567 591.017 160.674Z"
              fill="#F47458"/>
        <path d="M571.566 110.648C571.111 110.234 570.562 109.926 569.962 109.749C569.362 109.571 568.728 109.529 568.109 109.626C567.11 109.76 566.097 109.775 565.094 109.672C562.065 109.408 558.954 109.645 557.001 111.523C555.047 113.4 554.798 120.096 557.001 123.24C559.203 126.385 565.426 127.178 565.976 128.607C566.526 130.035 571.923 130.722 572.694 128.977C572.909 129.095 573.147 129.168 573.393 129.193C573.639 129.218 573.888 129.195 574.124 129.124C576.142 128.575 576.878 126.65 576.163 124.587C575.449 122.524 572.419 118.293 572.969 114.484C573.084 113.783 573.015 113.066 572.771 112.397C572.526 111.727 572.112 111.126 571.566 110.648Z"
              fill="#B75742"/>
        <path d="M570.297 123.533C570.128 123.702 570.031 123.926 570.025 124.16C570.019 124.394 570.104 124.622 570.264 124.798C570.911 125.518 572.017 126.673 572.816 127.113C574.015 127.772 575.155 124.979 575.155 123.727C575.155 122.53 572.408 121.452 570.297 123.533Z"
              fill="#184655"/>
        <path d="M569.063 143.608C569.057 143.463 569.021 143.321 568.958 143.191C568.894 143.06 568.804 142.942 568.693 142.845C568.581 142.748 568.451 142.674 568.309 142.626C568.167 142.578 568.017 142.557 567.867 142.566H567.846C567.091 142.62 566.356 142.823 565.688 143.164C565.019 143.504 564.431 143.974 563.961 144.543C563.491 145.113 563.149 145.77 562.957 146.473C562.765 147.176 562.726 147.91 562.844 148.627C562.868 148.776 562.865 148.927 562.836 149.075C562.714 149.616 561.764 151.432 560.748 153.283C562.673 153.745 564.598 154.208 566.523 154.67C567.935 152.321 569.334 150.133 569.334 150.133L569.063 143.608Z"
              fill="#B75742"/>
        <path d="M558.101 157.961C558.101 157.961 555.918 164.249 555.293 166.651C557.054 167.625 558.122 165.714 562.12 166.771C562.226 166.015 563.635 161.352 563.635 160.209C563.635 159.65 565.41 157.027 566.82 154.713C566.845 154.673 566.86 154.628 566.863 154.581C566.867 154.535 566.859 154.488 566.841 154.445C566.823 154.402 566.795 154.363 566.759 154.332C566.723 154.301 566.68 154.278 566.633 154.265C564.883 153.798 562.666 152.938 560.92 152.472C560.814 152.443 560.7 152.45 560.598 152.492C560.497 152.535 560.414 152.609 560.363 152.703C559.504 154.413 558.749 156.168 558.101 157.961Z"
              fill="#B75742"/>
        <path d="M553.673 166.036C554.023 165.424 554.544 164.917 555.176 164.572C555.808 164.228 556.527 164.058 557.254 164.083C559.128 164.083 562.12 166.771 562.12 166.771C562.12 166.771 561.231 167.605 558.787 167.605C556.343 167.605 552.83 167.784 553.673 166.036Z"
              fill="#B75742"/>
        <path d="M564.697 165.657C565.047 165.045 565.567 164.538 566.199 164.194C566.832 163.849 567.551 163.679 568.277 163.704C569.128 163.79 569.941 164.083 570.641 164.555C570.918 164.718 571.133 164.962 571.252 165.252C571.372 165.542 571.391 165.862 571.306 166.162C571.22 166.463 571.036 166.73 570.779 166.921C570.523 167.113 570.209 167.219 569.884 167.225H569.812C567.368 167.225 563.853 167.405 564.697 165.657Z"
              fill="#B75742"/>
        <path d="M582.281 165.657C582.802 164.76 584.332 163.704 586.588 163.704C587.59 163.784 588.561 164.074 589.433 164.555C590.969 165.308 590.325 167.214 588.522 167.225H588.435C585.496 167.225 581.267 167.405 582.281 165.657Z"
              fill="#B75742"/>
        <path d="M563.429 112.025C562.542 111.173 563.096 110.172 563.578 109.587C561.06 109.532 558.629 109.958 557 111.523C555.045 113.4 554.798 120.096 557 123.24C558.978 126.064 564.196 126.992 565.639 128.186C567.132 125.743 564.846 123.688 564.31 122.537C563.773 121.387 566.994 118.491 567.365 116.19C567.736 113.89 564.778 113.321 563.429 112.025Z"
              fill="#184655"/>
        <path d="M559.189 110.187C557.736 110.57 556.195 110.505 554.783 110.001C552.33 109.167 549.895 113.374 549.895 113.374C549.895 113.374 552.167 118.094 553.984 119.245C555.801 120.395 559.189 110.187 559.189 110.187Z"
              fill="#B75742"/>
        <path d="M590.335 150.346C590.335 149.299 586.997 146.279 585.391 146.768C583.833 147.242 577.516 151.048 577.516 151.048L549.576 144.738C549.576 144.738 542.525 129.294 541.837 116.026C536.008 116.786 532.039 118.174 526.973 120.884C529.416 133.573 535.355 154.141 541.919 157.999C544.68 159.624 577.652 156.055 577.652 156.055C577.652 156.055 584.509 156.978 586.211 156.525C593.205 154.671 590.335 152.455 590.335 150.346Z"
              fill="#F7A491"/>
        <path d="M542.009 101.85C541.145 97.8447 540.135 93.8249 535.629 92.556C534.224 92.1965 532.75 92.1654 531.331 92.4651C529.911 92.7649 528.587 93.3869 527.469 94.2791C524.813 96.3698 524.071 99.7255 524.085 102.897C524.049 110.195 524.687 117.482 525.989 124.673C531.056 121.962 538.431 122.273 544.259 121.513C544.801 115.1 543.138 107.069 542.009 101.85Z"
              fill="#F7CC7F"/>
        <path d="M315.546 79.2966C312.589 94.3748 303.151 126.086 287.762 125.589C287.014 104.901 285.958 87.1276 284.481 81.5129C284.147 80.3635 283.739 79.2351 283.26 78.1344C292.845 78.9333 298.603 64.8986 300.809 55.0112C298.843 61.2847 294.391 71.3364 288.554 74.6961C285.242 76.6129 282.813 75.6453 281.888 75.3778C276.325 65.4249 265.814 58.7666 260.74 52.8418C256.726 48.0982 259.3 29.1415 260.292 23.1271C258.882 30.1056 257.376 40.3264 258.006 47.4534C258.79 55.4912 263.108 56.0003 272.999 66.7966C280.921 75.3114 283.686 79.9049 283.963 112.534C283.242 112.68 282.51 112.771 281.773 112.805C273.663 112.948 266.206 105.382 262.077 98.7623C265.339 104.782 271.126 111.597 277.912 113.664C279.164 114.037 280.461 114.253 281.771 114.307C282.508 114.314 283.244 114.273 283.975 114.184C284.151 117.047 285.062 173.107 284.256 209.325C286.647 209.353 286.214 208.278 288.56 208.457C288.469 198.647 288.989 161.963 287.905 129.77C305.858 129.074 313.392 97.1762 315.546 79.2966Z"
              fill="#184655"/>
        <path d="M249.726 29.8056C253.384 32.6237 258.838 31.9297 258.838 31.9297L245.585 21.7234C245.585 21.7234 246.065 26.9871 249.726 29.8056Z"
              fill="#3C8F7C"/>
        <path d="M245.585 21.7234L258.838 31.9297C258.838 31.9297 258.357 26.6664 254.697 23.8479C251.037 21.0294 245.585 21.7234 245.585 21.7234Z"
              fill="#96D9C9"/>
        <path d="M311.284 123.197C315.972 123.027 319.622 119.074 319.622 119.074L302.647 119.689C302.647 119.689 306.597 123.367 311.284 123.197Z"
              fill="#3C8F7C"/>
        <path d="M302.647 119.69L319.622 119.075C319.622 119.075 315.672 115.398 310.985 115.568C306.297 115.738 302.647 119.69 302.647 119.69Z"
              fill="#96D9C9"/>
        <path d="M316.2 106.796C319.404 104.809 320.248 100.59 320.248 100.59L308.646 107.787C308.646 107.787 312.995 108.782 316.2 106.796Z"
              fill="#3C8F7C"/>
        <path d="M308.646 107.787L320.248 100.59C320.248 100.59 315.897 99.5933 312.694 101.581C309.49 103.569 308.646 107.787 308.646 107.787Z"
              fill="#96D9C9"/>
        <path d="M299.616 106.181C300.937 109.616 305.039 111.329 305.039 111.329L300.254 98.8848C300.254 98.8848 298.295 102.745 299.616 106.181Z"
              fill="#3C8F7C"/>
        <path d="M300.255 98.8839L305.039 111.329C305.039 111.329 306.999 107.468 305.679 104.032C304.358 100.595 300.255 98.8839 300.255 98.8839Z"
              fill="#96D9C9"/>
        <path d="M262.002 39.2674C259.137 41.1847 258.504 45.071 258.504 45.071L268.884 38.1312C268.884 38.1312 264.868 37.3506 262.002 39.2674Z"
              fill="#3C8F7C"/>
        <path d="M268.883 38.129L258.503 45.0688C258.503 45.0688 262.517 45.8471 265.383 43.9303C268.248 42.0135 268.883 38.129 268.883 38.129Z"
              fill="#96D9C9"/>
        <path d="M301.638 67.079C298.157 66.8185 295.104 69.4411 295.104 69.4411L307.713 70.3841C307.713 70.3841 305.12 67.339 301.638 67.079Z"
              fill="#3C8F7C"/>
        <path d="M307.713 70.3841L295.104 69.4411C295.104 69.4411 297.697 72.4859 301.179 72.7459C304.661 73.0059 307.713 70.3841 307.713 70.3841Z"
              fill="#96D9C9"/>
        <path d="M264.395 105.203C260.913 104.942 257.861 107.565 257.861 107.565L270.469 108.508C270.469 108.508 267.877 105.463 264.395 105.203Z"
              fill="#3C8F7C"/>
        <path d="M270.469 108.508L257.861 107.565C257.861 107.565 260.454 110.61 263.935 110.87C267.417 111.13 270.469 108.508 270.469 108.508Z"
              fill="#96D9C9"/>
        <path d="M270.937 101.816C269.667 98.6916 265.881 97.1925 265.881 97.1925L270.481 108.508C270.481 108.508 272.207 104.941 270.937 101.816Z"
              fill="#3C8F7C"/>
        <path d="M270.481 108.508L265.881 97.1925C265.881 97.1925 264.154 100.759 265.423 103.884C266.693 107.009 270.481 108.508 270.481 108.508Z"
              fill="#96D9C9"/>
        <path d="M295.832 62.7912C295.054 60.7835 292.649 59.7904 292.649 59.7904L295.472 67.0605C295.472 67.0605 296.611 64.7985 295.832 62.7912Z"
              fill="#3C8F7C"/>
        <path d="M295.472 67.0605L292.649 59.7904C292.649 59.7904 291.51 62.0524 292.289 64.0601C293.069 66.0679 295.472 67.0605 295.472 67.0605Z"
              fill="#96D9C9"/>
        <path d="M253.981 46.5828C250.717 45.3894 247.019 47.0778 247.019 47.0778L258.838 51.4003C258.838 51.4003 257.245 47.7762 253.981 46.5828Z"
              fill="#3C8F7C"/>
        <path d="M258.838 51.4003L247.019 47.0778C247.019 47.0778 248.612 50.7014 251.876 51.8953C255.14 53.0891 258.838 51.4003 258.838 51.4003Z"
              fill="#96D9C9"/>
        <path d="M295.573 208.575H297.417V139.106C297.417 138.99 297.394 138.874 297.347 138.767C297.301 138.66 297.233 138.562 297.147 138.48C297.062 138.397 296.96 138.332 296.848 138.288C296.736 138.243 296.617 138.22 296.496 138.22C296.374 138.22 296.255 138.243 296.143 138.288C296.031 138.332 295.929 138.397 295.843 138.48C295.758 138.562 295.69 138.659 295.643 138.767C295.597 138.874 295.573 138.99 295.573 139.106V208.575Z"
              fill="#F7CC7F"/>
        <path d="M274.107 211.07C274.107 211.07 282.588 201.275 289.415 204.065C296.241 206.854 297.358 201.817 300.93 203.477C304.503 205.138 308.968 209.325 308.968 209.325L274.107 211.07Z"
              fill="#B75742"/>
        <path d="M290.486 158.736C288.167 158.714 285.889 158.143 283.855 157.073C283.752 157.02 283.674 156.929 283.64 156.821C283.606 156.712 283.618 156.596 283.672 156.496C283.727 156.396 283.821 156.32 283.934 156.287C284.046 156.253 284.168 156.263 284.272 156.314C291.617 160.035 296.915 156.075 297.137 155.905C297.229 155.835 297.347 155.803 297.464 155.816C297.581 155.829 297.688 155.885 297.761 155.973C297.835 156.062 297.87 156.174 297.858 156.286C297.845 156.399 297.788 156.502 297.697 156.574C295.584 157.995 293.064 158.751 290.486 158.736Z"
              fill="#FAE0B2"/>
        <path d="M284.359 157.175L283.563 156.724C282.965 156.385 277.71 153.342 277.535 151.002C277.514 150.729 277.565 150.456 277.683 150.207C277.801 149.958 277.983 149.742 278.212 149.578C279.08 148.906 279.931 148.719 280.734 149.025C283.252 149.985 284.139 155.652 284.232 156.295L284.359 157.175ZM279.975 149.742C279.526 149.774 279.101 149.952 278.771 150.247C278.656 150.323 278.563 150.427 278.502 150.549C278.441 150.671 278.415 150.805 278.425 150.94C278.528 152.302 281.394 154.369 283.184 155.487C282.79 153.545 281.862 150.377 280.404 149.821C280.268 149.769 280.122 149.742 279.975 149.742Z"
              fill="#FAE0B2"/>
        <path d="M278.741 162.366C278.514 162.363 278.292 162.302 278.1 162.187C277.907 162.072 277.751 161.909 277.648 161.715C277.514 161.507 277.431 161.273 277.407 161.03C277.383 160.787 277.417 160.542 277.508 160.314C278.224 158.449 282.422 157.045 282.898 156.891L283.991 156.54L283.43 157.506C282.964 158.312 280.545 162.338 278.762 162.365L278.741 162.366ZM281.998 158.142C280.585 158.719 278.706 159.668 278.346 160.611C278.301 160.719 278.284 160.835 278.296 160.95C278.308 161.065 278.348 161.176 278.414 161.273C278.563 161.511 278.685 161.506 278.747 161.508C279.513 161.496 280.93 159.769 281.998 158.142Z"
              fill="#FAE0B2"/>
        <path d="M284.756 156.538C284.756 156.684 284.711 156.826 284.627 156.947C284.543 157.068 284.423 157.162 284.283 157.217C284.143 157.273 283.99 157.287 283.841 157.259C283.693 157.231 283.556 157.161 283.449 157.058C283.342 156.955 283.27 156.824 283.24 156.681C283.211 156.539 283.226 156.391 283.284 156.257C283.342 156.123 283.44 156.008 283.566 155.927C283.692 155.846 283.84 155.803 283.991 155.804C284.091 155.804 284.191 155.823 284.284 155.859C284.377 155.896 284.461 155.951 284.532 156.019C284.603 156.087 284.659 156.168 284.697 156.257C284.736 156.346 284.756 156.442 284.756 156.538Z"
              fill="#FAE0B2"/>
        <path d="M19.0795 451.893L21.7774 454.1L25.0547 452.647L27.8957 455.326L30.8908 452.742L34.243 455.635L37.3067 453.584L41.0038 455.86L40.1103 457.208L37.3461 455.506L34.1145 457.671L30.8922 454.89L27.8472 457.518L24.7113 454.561L21.5104 455.979L19.0105 453.934L17.1115 455.289L16.1233 454.003L19.0795 451.893Z"
              fill="#50BFA5"/>
        <path d="M370.536 43.3712L359.61 40.9466L356.72 48.4219L345.853 46.3895L341.912 53.2086L333.55 52.689L333.512 55.9138L344.696 56.6091L348.431 50.1472L359.737 52.2612L362.578 44.9089L372.479 47.105L370.536 43.3712Z"
              fill="#F7CC7F"/>
        <path d="M693.426 238.761L697.369 232.362L694.118 225.614C694.035 225.441 694.003 225.249 694.027 225.06C694.052 224.871 694.131 224.692 694.255 224.543C694.38 224.395 694.545 224.283 694.733 224.22C694.92 224.157 695.122 224.146 695.316 224.187L702.87 225.813L708.546 220.756C708.692 220.626 708.873 220.538 709.068 220.502C709.263 220.466 709.464 220.482 709.65 220.55C709.835 220.619 709.997 220.735 710.118 220.887C710.238 221.039 710.311 221.22 710.33 221.41L711.055 228.813L717.815 232.437C717.989 232.53 718.131 232.667 718.228 232.834C718.324 233.001 718.369 233.19 718.359 233.381C718.349 233.571 718.284 233.755 718.171 233.912C718.058 234.069 717.901 234.192 717.719 234.267L710.613 237.218L709.114 244.513C709.076 244.7 708.983 244.873 708.848 245.012C708.713 245.151 708.539 245.252 708.348 245.301C708.156 245.351 707.954 245.348 707.764 245.293C707.574 245.239 707.404 245.134 707.272 244.991L702.155 239.41L694.469 240.296C694.272 240.319 694.072 240.288 693.892 240.207C693.712 240.127 693.559 239.999 693.451 239.84C693.342 239.68 693.283 239.494 693.278 239.304C693.274 239.113 693.325 238.925 693.426 238.761Z"
              fill="#466EB6"/>
        <path d="M31.1601 390.693C31.6434 389.612 32.3709 388.648 33.29 387.871C34.2091 387.093 35.2967 386.522 36.4741 386.198C40.124 385.144 43.511 387.203 44.527 390.447C45.7031 394.203 43.666 399.638 35.9761 406.071C25.8668 404.781 21.0472 401.327 19.8706 397.572C18.8546 394.327 20.4975 390.815 24.1465 389.76C25.3145 389.406 26.5497 389.307 27.7627 389.468C28.9758 389.63 30.1362 390.048 31.1601 390.693Z"
              fill="#F48C7F"/>
        <path d="M1.45492 400.892C4.67547 400.496 7.86983 399.925 11.0224 399.179C11.9739 398.953 13.6933 398.834 14.1514 397.894C14.2826 397.675 14.3221 397.417 14.2618 397.171C14.2016 396.926 14.0462 396.712 13.8273 396.573C12.9315 395.979 11.5752 396.617 10.6163 396.843C7.69299 397.533 4.35172 398.18 0.93409 398.647C0.625505 398.716 0.357375 398.898 0.187372 399.155C0.0173697 399.412 -0.0409254 399.722 0.0250368 400.02C0.0999282 400.315 0.290565 400.57 0.557061 400.733C0.823558 400.896 1.14528 400.953 1.45492 400.893V400.892Z"
              fill="#F48C7F"/>
        <path d="M52.0984 396.595C53.5026 396.287 54.9001 395.955 56.2993 395.628C57.6377 395.314 59.2766 395.168 60.4321 394.432C60.6272 394.327 60.7818 394.164 60.873 393.968C60.9641 393.772 60.9869 393.553 60.938 393.343C60.8891 393.134 60.7711 392.945 60.6015 392.805C60.4319 392.665 60.2198 392.581 59.9968 392.566C58.6122 392.427 57.1087 393.017 55.768 393.335C54.3696 393.668 52.9704 393.997 51.578 394.351C50.09 394.728 50.5894 396.928 52.0984 396.597V396.595Z"
              fill="#F48C7F"/>
        <path d="M18.8257 415.466C19.865 412.225 21.7828 410.854 23.1423 409.386C23.3047 409.231 23.4048 409.026 23.4249 408.807C23.4449 408.588 23.3836 408.369 23.2518 408.19C23.12 408.01 22.9263 407.881 22.7048 407.825C22.4834 407.769 22.2486 407.791 22.0421 407.886C19.2212 409.014 17.3711 412.118 16.5421 414.802C16.1058 416.215 18.3711 416.88 18.8257 415.466Z"
              fill="#F48C7F"/>
        <path d="M36.752 418.801C36.3396 417.437 36.2293 416.005 36.4282 414.597C36.554 413.729 37.6629 411.127 35.9147 411.098C34.2686 411.067 34.0518 413.705 33.9425 414.824C33.8012 416.332 33.9576 417.852 34.4034 419.304C34.8379 420.724 37.1754 420.237 36.752 418.802V418.801Z"
              fill="#F48C7F"/>
        <path d="M46.4859 407.577L49.2296 408.662C50.1441 409.023 51.0852 409.638 52.0596 409.199C52.298 409.073 52.4768 408.864 52.5588 408.614C52.6409 408.365 52.62 408.095 52.5004 407.861C52.152 406.982 50.7756 406.731 49.9397 406.407L47.1901 405.338C46.881 405.25 46.5485 405.284 46.2645 405.43C45.9805 405.576 45.7677 405.823 45.672 406.119C45.5858 406.416 45.6222 406.733 45.7736 407.005C45.925 407.276 46.1797 407.482 46.4846 407.577H46.4859Z"
              fill="#F48C7F"/>
        <path d="M19.4581 384.689C14.756 378.51 14.8054 378.463 14.0623 378.036C13.8861 377.938 13.684 377.89 13.4804 377.899C13.2767 377.908 13.0801 377.973 12.9139 378.086C12.7478 378.2 12.6191 378.357 12.5434 378.539C12.4677 378.721 12.4481 378.919 12.487 379.112C12.6969 379.959 12.6777 379.814 17.65 386.299C17.8734 386.528 18.1816 386.663 18.5078 386.674C18.8339 386.686 19.1517 386.574 19.3922 386.362C19.6249 386.144 19.7615 385.849 19.7736 385.538C19.7858 385.226 19.6726 384.922 19.4576 384.689H19.4581Z"
              fill="#F48C7F"/>
        <path d="M32.2077 381.647C32.3856 380.401 32.4239 379.14 32.322 377.887C32.2273 376.718 32.2461 374.915 30.9607 374.384C30.8041 374.336 30.6366 374.329 30.4761 374.364C30.3157 374.4 30.1683 374.477 30.0498 374.586C29.219 375.465 29.8116 376.949 29.8939 378.027C29.9751 379.205 29.9517 380.388 29.8239 381.562C29.8159 381.864 29.9315 382.158 30.1459 382.379C30.3604 382.601 30.6566 382.733 30.9712 382.748C31.2851 382.752 31.5886 382.639 31.8185 382.434C32.0485 382.229 32.1872 381.946 32.2059 381.645L32.2077 381.647Z"
              fill="#F48C7F"/>
        <path d="M50.5143 378.586C50.5916 378.015 50.0287 377.62 49.5152 377.552C48.4584 377.41 47.4186 378.602 46.7259 379.25C45.9236 380.008 45.186 380.826 44.52 381.697C44.355 381.959 44.3036 382.272 44.3767 382.569C44.4498 382.867 44.6417 383.125 44.9109 383.288C45.1844 383.441 45.5087 383.488 45.8168 383.418C46.125 383.348 46.3934 383.167 46.5667 382.913C49.2248 379.719 50.3246 379.998 50.5143 378.586Z"
              fill="#F48C7F"/>
        <path d="M729.09 306.402C727.924 315.231 737.495 322.236 746.007 321.683C755.416 321.073 763.398 313.661 764.774 304.779C766.263 295.165 760.25 287.477 750.946 286.771C741.889 286.085 736.096 293.828 738.712 301.641C740.587 307.243 745.911 309.332 748.593 307.786C750.683 306.581 750.556 303.543 748.026 303.007C747.531 302.928 747.023 302.987 746.562 303.178C746.101 303.369 745.707 303.683 745.427 304.083C743.213 303.238 741.104 299.365 742.535 295.181C744.364 289.839 751.394 289.533 755.761 292.025C761.32 295.197 762.194 302.026 760.156 307.468C758.014 313.182 752.172 317.684 745.812 318.117C742.331 318.328 738.903 317.22 736.263 315.031C733.623 312.842 731.982 309.747 731.691 306.408C731.677 306.086 731.535 305.781 731.293 305.558C731.052 305.334 730.729 305.208 730.393 305.208C730.058 305.207 729.735 305.331 729.492 305.553C729.249 305.776 729.105 306.08 729.09 306.402Z"
              fill="#86B1F2"/>
        <path d="M56.5385 483.886C55.9441 488.408 60.8432 491.996 65.2024 491.713C70.0215 491.4 74.1091 487.603 74.8142 483.056C75.5769 478.132 72.4967 474.195 67.732 473.832C63.0939 473.48 60.1267 477.446 61.4674 481.448C62.4277 484.316 65.1544 485.386 66.5275 484.595C67.598 483.977 67.5335 482.421 66.2372 482.146C65.9837 482.106 65.7235 482.137 65.4876 482.234C65.2516 482.332 65.0499 482.493 64.9065 482.698C63.772 482.265 62.6924 480.282 63.4254 478.139C64.361 475.403 67.9625 475.247 70.199 476.523C73.0459 478.148 73.4913 481.645 72.4492 484.432C71.8796 485.911 70.889 487.206 69.5902 488.17C68.2914 489.135 66.7366 489.729 65.1031 489.886C63.3206 489.993 61.565 489.426 60.213 488.305C58.861 487.184 58.0202 485.598 57.871 483.889C57.8712 483.805 57.8541 483.722 57.8208 483.644C57.7875 483.566 57.7386 483.495 57.6768 483.436C57.6151 483.376 57.5417 483.329 57.461 483.297C57.3802 483.264 57.2936 483.248 57.2061 483.248C57.1186 483.247 57.032 483.264 56.9511 483.296C56.8702 483.328 56.7966 483.375 56.7346 483.434C56.6726 483.493 56.6234 483.564 56.5897 483.641C56.5561 483.719 56.5387 483.802 56.5385 483.886Z"
              fill="#86B1F2"/>
        <path d="M74.1849 331.153L74.1144 322.688L66.815 317.943C66.6278 317.821 66.4797 317.652 66.3875 317.453C66.2953 317.255 66.2627 317.036 66.2935 316.821C66.3242 316.606 66.417 316.403 66.5614 316.236C66.7058 316.069 66.896 315.945 67.1104 315.876L75.4702 313.197L77.9107 305.063C77.9734 304.854 78.0955 304.667 78.2634 304.521C78.4312 304.376 78.6379 304.278 78.8603 304.24C79.0827 304.202 79.3119 304.224 79.5219 304.304C79.7319 304.384 79.9144 304.519 80.0489 304.693L85.2855 311.501L94.0939 311.218C94.3197 311.211 94.5432 311.264 94.739 311.372C94.9349 311.481 95.0952 311.64 95.202 311.831C95.3088 312.022 95.3577 312.238 95.3432 312.455C95.3287 312.672 95.2514 312.88 95.12 313.057L89.9963 319.945L92.9992 327.903C93.0761 328.107 93.0921 328.328 93.0453 328.54C92.9985 328.753 92.8908 328.948 92.7344 329.105C92.578 329.262 92.3791 329.373 92.1602 329.427C91.9413 329.48 91.7111 329.474 91.4957 329.409L83.0924 326.857L76.142 332.06C75.9638 332.194 75.7502 332.277 75.5253 332.3C75.3005 332.323 75.0734 332.285 74.8698 332.191C74.6661 332.097 74.494 331.949 74.373 331.766C74.2519 331.582 74.1868 331.37 74.1849 331.153Z"
              fill="#F7CC7F"/>
        <path d="M686.588 371.616C686.487 370.221 686.82 368.829 687.543 367.615C688.266 366.401 689.348 365.42 690.651 364.797C691.954 364.174 693.421 363.936 694.865 364.113C696.309 364.29 697.667 364.875 698.765 365.793C699.863 366.711 700.654 367.921 701.036 369.27C701.418 370.62 701.376 372.048 700.913 373.374C700.45 374.7 699.589 375.865 698.437 376.72C697.286 377.576 695.896 378.085 694.443 378.182C693.479 378.246 692.51 378.128 691.593 377.833C690.677 377.537 689.829 377.072 689.1 376.462C688.37 375.852 687.773 375.111 687.342 374.279C686.911 373.448 686.655 372.543 686.588 371.616Z"
              fill="#F7CC7F"/>
        <path d="M699.075 391.588C698.634 389.535 698.369 387.339 697.64 385.361C697.014 383.661 694.251 384.18 694.39 386.007C694.562 388.243 695.289 390.511 695.777 392.702C695.975 393.589 697.194 394.001 698.006 393.728C698.995 393.395 699.265 392.479 699.075 391.588Z"
              fill="#F7CC7F"/>
        <path d="M711.693 382.826C709.252 381.443 707.126 379.731 704.874 378.097C703.114 376.82 701.215 379.019 702.664 380.534C704.743 382.714 707.471 384.417 710.104 385.908C710.315 386.011 710.545 386.073 710.781 386.089C711.017 386.106 711.254 386.078 711.478 386.006C711.703 385.935 711.91 385.821 712.089 385.672C712.267 385.523 712.413 385.341 712.518 385.138C712.623 384.934 712.685 384.712 712.7 384.486C712.716 384.259 712.684 384.032 712.607 383.817C712.531 383.602 712.41 383.403 712.254 383.233C712.097 383.063 711.906 382.925 711.693 382.826Z"
              fill="#F7CC7F"/>
        <path d="M707.072 370.164C706.813 370.346 706.636 370.617 706.576 370.92C706.517 371.223 706.579 371.536 706.752 371.796C707.575 373.234 709.671 373.163 711.159 373.114C712.718 373.053 714.258 372.771 715.732 372.28C717.902 371.568 716.726 368.334 714.548 369.047C710.287 370.444 708.674 368.928 707.072 370.164Z"
              fill="#F7CC7F"/>
        <path d="M704.726 356.412C702.583 359.423 700.832 360.441 701.105 362.099C701.126 362.311 701.197 362.515 701.311 362.698C701.426 362.88 701.581 363.035 701.766 363.152C701.952 363.269 702.162 363.345 702.382 363.374C702.601 363.402 702.825 363.383 703.036 363.318C704.187 363.067 704.814 361.895 705.505 361.072C706.167 360.282 706.816 359.491 707.406 358.652C707.943 357.889 708.019 356.902 707.233 356.245C706.575 355.695 705.271 355.647 704.727 356.412H704.726Z"
              fill="#F7CC7F"/>
        <path d="M696.377 355.892C695.691 354.066 695.542 353.403 694.653 352.554C693.881 351.816 692.25 352.287 692.141 353.373C692.016 354.64 692.292 355.111 693.01 357.029C693.167 357.457 693.495 357.808 693.922 358.005C694.348 358.201 694.839 358.227 695.285 358.076C695.731 357.925 696.096 357.61 696.301 357.2C696.505 356.791 696.532 356.32 696.375 355.891L696.377 355.892Z"
              fill="#F7CC7F"/>
        <path d="M687.361 360.307C684.271 358.053 683.643 357.418 682.429 357.54C681.718 357.612 680.92 358.269 681.075 359.036C681.364 360.461 682.227 360.848 685.067 362.839C685.421 363.12 685.875 363.26 686.334 363.229C686.792 363.199 687.221 363 687.532 362.674C687.832 362.337 687.983 361.9 687.951 361.457C687.919 361.014 687.707 360.601 687.361 360.307V360.307Z"
              fill="#F7CC7F"/>
        <path d="M674.95 370.641C673.733 371.262 674.222 373.284 675.54 373.449C676.804 373.608 677.292 373.413 683.426 372.337C684.373 372.171 685.152 371.506 685.081 370.509C685.02 369.664 684.132 368.752 683.179 368.919C676.809 370.024 676.171 370.019 674.95 370.641Z"
              fill="#F7CC7F"/>
        <path d="M684.558 380.278C681.197 383.403 680.705 382.852 679.377 384.763C678.77 385.636 679.772 387.029 680.829 386.843C682.185 386.603 682.55 386.384 684.318 385.038C685.344 384.256 686.33 383.418 687.271 382.545C687.97 381.897 687.781 380.684 687.095 380.11C686.731 379.818 686.264 379.673 685.791 379.704C685.318 379.735 684.877 379.941 684.558 380.278Z"
              fill="#F7CC7F"/>
        <path d="M120.168 681.235H127.37V313.902C127.369 312.984 126.99 312.105 126.315 311.456C125.639 310.808 124.723 310.443 123.769 310.443C122.814 310.443 121.898 310.808 121.223 311.456C120.547 312.105 120.168 312.984 120.168 313.902V681.235Z"
              fill="#FAE0B2"/>
        <path d="M168.815 681.235H176.016V307.68C176.016 307.226 175.923 306.776 175.742 306.357C175.561 305.937 175.296 305.556 174.962 305.235C174.627 304.913 174.23 304.659 173.793 304.485C173.357 304.311 172.888 304.221 172.415 304.221C171.461 304.222 170.545 304.586 169.87 305.235C169.194 305.883 168.815 306.763 168.815 307.68V681.235Z"
              fill="#FAE0B2"/>
        <path d="M174.854 350.261H125.287V354.407H174.854V350.261Z" fill="#FAE0B2"/>
        <path d="M174.854 405.808H125.287V409.954H174.854V405.808Z" fill="#FAE0B2"/>
        <path d="M174.854 461.355H125.287V465.501H174.854V461.355Z" fill="#FAE0B2"/>
        <path d="M174.854 516.902H125.287V521.048H174.854V516.902Z" fill="#FAE0B2"/>
        <path d="M139.115 552.158H107.846C107.232 552.158 106.624 552.274 106.057 552.5C105.49 552.725 104.974 553.056 104.54 553.473C104.106 553.89 103.762 554.385 103.527 554.93C103.292 555.474 103.171 556.058 103.171 556.648V573.508H108.4V557.524H139.115V552.158Z"
              fill="#13375B"/>
        <path d="M145.091 540.773L135.397 530.95C135.397 530.95 125.023 536.431 112.929 541.668C109.604 536.109 104.178 517.825 103.886 516.953C103.594 516.081 110.242 505.094 108.755 504.82C107.267 504.546 105.336 510.685 103.764 510.062C102.192 509.44 98.151 495.194 97.2049 495.971C95.4348 497.427 99.3307 504.832 98.3979 505.371C97.4651 505.909 95.0978 497.162 93.2957 497.535C91.4936 497.908 96.3388 505.499 95.807 506.229C95.2752 506.959 90.2119 499.837 89.1656 501.485C88.5977 502.38 93.8366 507.687 92.7589 508.281C91.6811 508.874 86.9598 505.532 86.3959 506.614C85.8321 507.696 90.8017 508.826 92.1808 511.565C93.56 514.305 96.0677 515.371 96.9017 520.552C97.7358 525.732 100.011 553.417 105.886 555.64C111.019 557.586 145.091 540.773 145.091 540.773Z"
              fill="#F7A491"/>
        <path d="M234.492 668.428C235.258 663.205 235.197 653.562 234.808 643.39C239.552 643.159 243.565 642.869 248.304 642.57C246.33 655.562 245.003 668.94 245.003 668.94L245.327 671.508L245.502 679.119L218.66 679.31C223.34 677.203 227.873 674.808 232.231 672.141C232.863 671.714 233.392 671.161 233.782 670.521C234.172 669.88 234.415 669.166 234.492 668.428Z"
              fill="#F7A491"/>
        <path d="M246.225 680.753L217.92 681.075C216.895 680.987 216.646 680.19 217.001 679.7C217.733 678.69 220.965 677.948 224.599 676.338C230.972 676.976 244.307 672.794 245.313 671.388C245.893 674.203 246.795 680.633 246.225 680.753Z"
              fill="#F47458"/>
        <path d="M282.587 663.047C280.371 658.221 275.028 650.058 269.116 641.608C273.02 639.011 276.89 636.366 280.753 633.711C286.204 645.752 291.8 658.16 291.8 658.16L293.485 660.181L297.809 666.559L275.103 680.313C277.923 676.153 280.461 671.822 282.702 667.348C283.005 666.665 283.151 665.928 283.131 665.186C283.111 664.444 282.926 663.714 282.587 663.047Z"
              fill="#F7A491"/>
        <path d="M298.991 668.155L275.442 682.184C274.522 682.628 273.873 682.078 273.906 681.481C273.973 680.251 276.314 677.986 278.518 674.778C284.284 672.094 293.266 661.724 293.35 660.02C295.39 662.118 299.409 667.764 298.991 668.155Z"
              fill="#F47458"/>
        <path d="M271.545 450.684C273.644 440.853 267.06 431.107 257.829 427.447C257.89 421.853 256.004 414.766 252.027 410.936C244.182 403.381 229.209 400.733 223.441 410.365C215.82 414.506 209.826 423.474 212.098 431.644C204.713 438.991 207.518 452.285 218.287 458.563C218.116 466.807 222.653 475 230.158 478.523C231.959 479.369 234.776 480.548 235.135 480.913C234.665 480.487 240.693 496.61 259.421 489.231C278.53 481.7 284 460.505 271.545 450.684Z"
              fill="#355389"/>
        <path d="M233.998 661.052C236.323 648.665 228.247 617.96 223.322 604.459C218.201 590.417 214.943 530.992 214.943 530.992L220.75 524.47L244.45 523.106C244.45 523.106 234.366 552.869 234.366 563.096C234.366 573.322 239.272 599.721 245.035 613.457C250.351 626.129 248.144 652.699 246.533 661.437C242.366 662.048 238.116 661.917 233.998 661.052Z"
              fill="#184655"/>
        <path d="M250.441 525.869C251.527 526.912 257.894 534.157 257.894 539.222C257.894 544.286 245.889 589.871 248.77 592.632C251.652 595.393 262.31 602.312 269.111 611.948C274.841 620.066 287.982 643.542 290.49 649.126C285.539 652.435 281.239 653.944 276.279 655.538C275.483 651.382 236.667 610.281 232.234 601.686C227.802 593.09 225.399 553.799 223.158 548.58C220.917 543.362 214.939 530.104 214.939 530.104L250.441 525.869Z"
              fill="#3C8F7C"/>
        <path d="M215.864 492.275C215.864 492.275 201.232 508.316 185.038 514.352C183.329 515.045 181.741 515.985 180.329 517.141C180.329 518.778 183.367 517.593 183.367 517.593C182.75 518.672 182.577 519.934 182.883 521.13C183.417 523.074 186.948 521.782 188.869 521.782C189.748 521.782 194.264 516.929 200.36 514.075C207.575 510.7 216.09 507.396 217.129 506.398C219.051 504.556 216.434 491.687 215.864 492.275Z"
              fill="#F79C8D"/>
        <path d="M245.626 447.132C245.626 447.132 230.902 445.7 223.216 450.406C215.53 455.113 210.623 471.894 210.623 479.056C210.623 486.219 216.163 523.874 214.033 531.036C214.033 531.036 238.369 530.014 246.693 530.014C255.017 530.014 256.724 526.943 256.724 526.943C256.724 526.943 239.436 510.572 239.436 503.41C239.436 496.248 245.626 447.132 245.626 447.132Z"
              fill="#B75742"/>
        <path d="M44.5371 640.065V664.598H47.3008V642.293H65.609V649.949C58.5314 650.679 53.0007 656.959 53.0007 664.598C53.0007 672.727 59.2653 679.317 66.9908 679.317C74.7164 679.317 80.9805 672.729 80.9805 664.598C80.9805 656.959 75.4503 650.679 68.3722 649.949V642.293H72.1717V639.386H68.3722V630.553H72.1717V627.646H68.3722V617.818H118.46V613.457H90.7858V588.477C90.7858 581.804 97.1715 574.342 105.717 574.342H129.514V569.981H105.715C95.5528 569.981 86.6383 578.623 86.6383 588.477V613.456H68.3704V599.444H65.6071V627.645H56.3383C49.8323 627.646 44.5371 633.217 44.5371 640.065ZM65.609 639.386H47.3242C47.6557 634.457 51.5726 630.553 56.3401 630.553H65.609V639.386Z"
              fill="#13375B"/>
        <path d="M55.3853 643.916C55.3853 643.916 55.9427 653.377 55.9454 653.397C56.1503 654.598 56.9578 657.565 56.9578 658.657C56.9578 662.759 37.9574 655.174 42.2155 653.357C42.6014 653.192 44.7954 650.92 45.3455 649.624C46.3268 647.313 46.7561 642.784 46.7561 642.784L55.3853 643.916Z"
              fill="#F48C7F"/>
        <path d="M42.2626 653.318C44.4821 653.95 46.7335 654.473 49.0082 654.886C51.2946 655.201 54.3048 652.558 55.9212 653.273C57.7 654.058 57.802 661.271 57.802 661.271C57.802 661.271 33.9207 662.034 26.9821 661.056C24.2119 660.667 33.1433 656.24 42.2626 653.318Z"
              fill="#466EB6"/>
        <path d="M150.502 623.709H155.751V527.659C155.751 524.418 159.053 521.782 163.113 521.782H210.329C210.92 521.795 211.493 521.581 211.921 521.188C212.349 520.796 212.597 520.256 212.611 519.687C212.597 519.119 212.349 518.579 211.921 518.186C211.493 517.794 210.92 517.58 210.329 517.593H163.114C156.159 517.593 150.502 522.109 150.502 527.659V623.709Z"
              fill="#13375B"/>
        <path d="M125.895 664.953C143.387 664.953 157.568 651.21 157.568 634.257C157.568 617.303 143.387 603.56 125.895 603.56C108.402 603.56 94.2217 617.303 94.2217 634.257C94.2217 651.21 108.402 664.953 125.895 664.953Z"
              fill="#13375B"/>
        <path d="M87.3264 634.257C87.3264 654.9 104.594 671.635 125.895 671.635C147.195 671.635 164.463 654.9 164.463 634.257C164.463 613.613 147.195 596.878 125.895 596.878C104.594 596.878 87.3264 613.613 87.3264 634.257ZM90.9814 634.257C90.9814 615.569 106.613 600.42 125.895 600.42C145.177 600.42 160.808 615.569 160.808 634.257C160.808 652.944 145.177 668.093 125.895 668.093C106.613 668.093 90.9814 652.942 90.9814 634.257Z"
              fill="#13375B"/>
        <path d="M151.217 591.666H166.713V533.999H151.217V591.666Z" fill="#3C8F7C"/>
        <path d="M100.384 627.646H87.2729C83.8604 627.664 80.595 628.982 78.1928 631.31C75.7907 633.639 74.448 636.787 74.4593 640.065V664.597H77.4599V640.065C77.4509 637.554 78.479 635.143 80.3187 633.36C82.1583 631.576 84.6593 630.567 87.2729 630.552H100.384V627.646Z"
              fill="#50BFA5"/>
        <path d="M54.2091 602.093H94.9604V595.377H54.2091V602.093Z" fill="#13375B"/>
        <path d="M100.16 639.386H75.9597V642.293H100.16V639.386Z" fill="#50BFA5"/>
        <path d="M154.712 613.457H98.8354V617.819H154.712V613.457Z" fill="#50BFA5"/>
        <path d="M93.96 602.093H166.713V595.275H93.96V602.093Z" fill="#13375B"/>
        <path d="M164.463 628.849H168.963V532.798C168.991 531.215 169.671 529.708 170.855 528.606C172.038 527.505 173.628 526.899 175.276 526.921H217.714V522.733H175.276C169.314 522.733 164.463 527.248 164.463 532.798V628.849Z"
              fill="#50BFA5"/>
        <path d="M81.9485 664.598C81.9485 672.727 89.5095 679.317 98.8355 679.317C108.161 679.317 115.722 672.729 115.722 664.598C115.722 656.466 108.162 649.878 98.8355 649.878C89.509 649.878 81.9485 656.468 81.9485 664.598Z"
              fill="#184655"/>
        <path d="M88.5527 664.598C88.5527 669.547 93.1565 673.56 98.8353 673.56C104.514 673.56 109.118 669.547 109.118 664.598C109.118 659.648 104.515 655.635 98.8353 655.635C93.1561 655.635 88.5527 659.647 88.5527 664.598Z"
              fill="#50BFA5"/>
        <path d="M57.653 569.981C62.5361 565.29 130.595 567.551 130.595 567.551C130.595 567.551 72.9367 581.066 69.5703 582.829C66.2039 584.591 53.6747 644.07 53.6601 644.848C50.1821 644.053 48.0764 644.654 44.5371 643.958C45.1037 633.623 49.7852 577.538 57.653 569.981Z"
              fill="#13375B"/>
        <path d="M64.2864 644.205C64.2864 644.205 64.8439 653.665 64.8475 653.685C65.0524 654.885 65.859 657.853 65.859 658.945C65.859 663.047 46.859 655.462 51.1171 653.646C51.5026 653.481 54.1204 651.307 54.2476 649.912C54.4428 647.76 54.339 644.339 54.339 644.339L64.2864 644.205Z"
              fill="#F7A491"/>
        <path d="M51.163 653.606C53.3823 654.238 55.6336 654.762 57.9081 655.174C60.1945 655.489 63.2051 652.846 64.8211 653.561C66.5999 654.346 66.7023 661.558 66.7023 661.558C66.7023 661.558 42.8205 662.322 35.8824 661.345C33.1132 660.955 42.0446 656.528 51.163 653.606Z"
              fill="#466EB6"/>
        <path d="M141.206 580.975C141.206 580.975 140.618 595.815 135.476 595.993C130.334 596.17 97.3351 596.878 78.7494 595.275L66.2445 648.364L51.5593 647.005C51.5593 647.005 55.9825 611.549 57.5555 598.064C59.1029 584.796 63.5631 573.665 71.3719 573.395C79.1806 573.125 130.517 565.495 130.517 565.495L141.206 580.975Z"
              fill="#355389"/>
        <path d="M155.047 511.699C155.047 511.699 163.379 513.729 162.248 529.359C161.118 544.989 152.119 592.28 135.476 595.993C118.833 599.705 107.994 566.042 107.994 566.042C107.994 566.042 118.495 562.727 122.867 547.08C125.897 536.241 134.017 511.778 136.05 510.601C141.097 507.679 155.047 511.699 155.047 511.699Z"
              fill="#86B1F2"/>
        <path d="M120.168 616.815H124.668V588.477C124.668 581.804 131.601 574.342 140.878 574.342H166.714V569.981H140.879C129.847 569.981 120.169 578.623 120.169 588.477L120.168 616.815Z"
              fill="#50BFA5"/>
        <path d="M166.713 673.56C186.803 673.56 203.089 657.777 203.089 638.306C203.089 618.836 186.803 603.052 166.713 603.052C146.623 603.052 130.337 618.836 130.337 638.306C130.337 657.777 146.623 673.56 166.713 673.56Z"
              fill="#50BFA5"/>
        <path d="M122.418 638.306C122.418 662.015 142.249 681.235 166.713 681.235C191.176 681.235 211.008 662.015 211.008 638.306C211.008 614.598 191.176 595.377 166.713 595.377C142.249 595.377 122.418 614.598 122.418 638.306ZM126.615 638.306C126.615 616.844 144.567 599.445 166.713 599.445C188.858 599.445 206.811 616.844 206.811 638.306C206.811 659.769 188.858 677.167 166.713 677.167C144.567 677.167 126.615 659.768 126.615 638.306Z"
              fill="#50BFA5"/>
        <path d="M166.713 667.381C183.282 667.381 196.714 654.363 196.714 638.306C196.714 622.248 183.282 609.231 166.713 609.231C150.144 609.231 136.712 622.248 136.712 638.306C136.712 654.363 150.144 667.381 166.713 667.381Z"
              fill="#184655"/>
        <path d="M159.963 638.306C159.975 639.586 160.382 640.834 161.131 641.892C161.88 642.951 162.939 643.772 164.173 644.254C165.408 644.735 166.763 644.855 168.069 644.598C169.374 644.341 170.571 643.719 171.509 642.81C172.447 641.901 173.083 640.745 173.339 639.489C173.594 638.233 173.457 636.932 172.944 635.751C172.431 634.569 171.566 633.56 170.457 632.85C169.348 632.14 168.045 631.762 166.713 631.762C165.822 631.766 164.941 631.938 164.12 632.269C163.299 632.6 162.553 633.083 161.926 633.691C161.299 634.298 160.803 635.019 160.466 635.811C160.13 636.603 159.958 637.451 159.963 638.306Z"
              fill="#3C8F7C"/>
        <path d="M32.9078 669.068H78.7097V661.447H32.9078V669.068Z" fill="#184655"/>
        <path d="M52.7089 669.068H78.7097V661.447H52.7089V669.068Z" fill="#3C8F7C"/>
        <path d="M100.336 602.012H97.3352V669.068H100.336V602.012Z" fill="#50BFA5"/>
        <path d="M97.054 665.453C97.0571 665.804 97.1684 666.146 97.3738 666.437C97.5792 666.727 97.8696 666.953 98.2082 667.085C98.5469 667.217 98.9188 667.251 99.2769 667.18C99.6351 667.11 99.9636 666.939 100.221 666.69C100.478 666.44 100.653 666.123 100.723 665.779C100.794 665.434 100.756 665.077 100.615 664.753C100.475 664.429 100.237 664.152 99.9331 663.957C99.6289 663.762 99.2715 663.658 98.9059 663.658C98.4127 663.661 97.9404 663.851 97.5932 664.187C97.2459 664.524 97.0519 664.979 97.054 665.453Z"
              fill="#13375B"/>
        <path d="M150.017 469.852C150.017 469.852 155.853 466.061 158.321 472.7C159.102 472.651 159.885 472.671 160.662 472.758C161.862 473.148 163.022 474.349 164.092 475.007C167.903 477.35 169.66 481.903 169.868 486.085C170.119 491.16 167.936 494.87 164.461 498.536C163.484 499.659 162.314 500.614 161.004 501.361C159.386 502.195 158.108 501.532 156.588 501.885C155.307 502.184 154.857 503.481 153.348 503.012C151.233 502.357 149.011 499.811 146.387 500.189C143.764 500.566 137.717 498.3 137.699 498.293C129.926 495.382 135.175 480.932 136.664 475.805C138.068 470.981 145.208 468.107 150.017 469.852Z"
              fill="#184655"/>
        <path d="M142.994 502.685L140.975 507.976L139.887 510.935C139.887 510.935 139.811 516.227 141.096 517.6C143.308 519.96 152.404 511.211 152.404 511.211L155.285 494.565L142.994 502.685Z"
              fill="#F7A491"/>
        <path d="M154.35 499.959C150.891 505.111 144.93 507.465 140.956 508.025L142.994 502.683L155.285 494.565L154.35 499.959Z"
              fill="#F47458"/>
        <path d="M152.923 477.47C151.835 476.839 150.616 476.445 149.352 476.315C148.089 476.185 146.811 476.322 145.608 476.717C144.406 477.112 143.308 477.756 142.392 478.602C141.476 479.448 140.765 480.477 140.307 481.616C139.307 484.125 138.475 486.694 137.815 489.305C136.041 496.41 138.289 504.169 141.661 504.884C145.033 505.6 155.415 502.959 158.081 492.903C159.727 486.694 157.783 480.325 152.923 477.47Z"
              fill="#F7A491"/>
        <path d="M155.412 493.175C155.05 494.748 155.843 496.254 157.182 496.538C158.522 496.822 159.902 495.778 160.264 494.205C160.625 492.631 159.833 491.124 158.493 490.84C157.153 490.556 155.774 491.602 155.412 493.175Z"
              fill="#F7A491"/>
        <path d="M144.994 496.123C144.994 496.123 149.439 497.517 149.802 499.085C150.164 500.653 149.619 502.919 147.444 504.661C145.268 506.404 140.611 505.329 139.341 504.37C138.071 503.412 137.103 499.347 138.373 497.079C139.642 494.812 144.994 496.123 144.994 496.123Z"
              fill="#184655"/>
        <path d="M146.448 499.405C146.448 499.405 146.422 501.152 145.813 501.469C145.185 501.799 144.498 502.011 143.787 502.093C143.265 502.15 142.737 502.07 142.258 501.861C141.78 501.652 141.37 501.323 141.071 500.907C141.013 500.826 140.961 500.742 140.915 500.654C140.601 499.884 140.417 499.07 140.371 498.244C140.371 498.244 142.245 497.808 143.334 497.983C144.423 498.157 146.448 499.405 146.448 499.405Z"
              fill="#F7A491"/>
        <path d="M194.509 519.781C196.27 518.093 204.432 515.483 210.623 511.186C213.361 509.286 218.622 506.784 223.743 504.063C227.484 506.054 230.867 508.554 233.391 511.544C224.125 515.634 214.07 519.749 212.542 521.214C209.661 523.976 204.645 530.218 203.471 530.218C202.297 530.218 193.387 527.712 192.052 526.433C190.718 525.153 192.748 521.47 194.509 519.781Z"
              fill="#F79C8D"/>
        <path d="M223.743 504.063C230.201 500.631 236.434 496.852 237.088 493.484C238.262 487.447 232.927 461.355 235.914 456.341C238.902 451.327 245.626 447.132 245.626 447.132C246.693 447.132 250.534 449.383 251.601 453.885C252.668 458.388 250.748 498.906 249.681 502.591C249.178 504.32 241.876 511.207 233.673 514.828C231.147 511.837 227.486 506.054 223.743 504.063Z"
              fill="#F47458"/>
        <path d="M157.214 558.711L131.464 565.191C131.464 565.191 123.894 570.435 120.49 571.476C117.086 572.518 112.924 576.12 113.74 577.226C114.556 578.331 118.833 574.576 119.528 574.69C120.223 574.804 117.013 579.25 116.493 582.164C115.973 585.078 114.93 587.909 116.67 587.68C118.41 587.451 119.673 580.887 119.673 580.887C119.673 580.887 122.347 575.923 122.779 576.51C123.212 577.097 120.992 580.503 120.992 580.503C120.992 580.503 120.466 584.186 120.235 585.482C120.062 586.448 120.988 589.35 121.778 588.283C122.242 587.657 122.023 585.261 122.562 583.895C123.296 582.103 124.275 580.413 125.474 578.869C125.474 578.869 123.539 587.266 124.755 587.466C125.97 587.666 127.229 580.71 127.229 580.71C127.229 580.71 130.201 574.918 131.497 574.401C132.793 573.885 136.359 571.678 139.116 570.759C141.874 569.841 153.271 572.868 158.356 572.932C163.442 572.997 171.693 569.973 172.377 566.142C172.587 564.972 171.826 563.679 170.669 562.446C168.996 560.701 166.857 559.43 164.485 558.772C162.113 558.113 159.598 558.092 157.214 558.711Z"
              fill="#F7A491"/>
        <path d="M155.047 511.699C155.047 511.699 162.837 510.367 169.89 522.552C176.942 534.737 172.376 566.142 172.376 566.142L157.214 558.711L155.047 511.699Z"
              fill="#466EB6"/>
        <path d="M189.74 522.216C188.826 522.216 184.029 522.505 183.276 521.782C182.522 521.059 185.757 519.21 186.083 519.523C186.41 519.836 187.781 519.147 188.238 519.586C188.695 520.025 190.067 519.524 190.458 519.899C190.85 520.273 190.655 522.216 189.74 522.216Z"
              fill="#F48C7F"/>
        <path d="M237.979 434.505C237.979 434.505 236.339 443.165 236.667 446.58C236.996 449.996 235.417 461.005 228.334 461.041C221.251 461.078 226.065 449.611 226.734 446.264C227.403 442.917 228.483 429.988 228.483 429.988L237.979 434.505Z"
              fill="#F7A491"/>
        <path d="M228.044 434.891C228.111 433.181 228.326 431.479 228.687 429.803L237.979 434.503C237.979 434.503 237.644 436.274 237.307 438.53C235.56 438.922 233.731 438.782 232.071 438.13C230.411 437.478 229.004 436.346 228.044 434.891Z"
              fill="#F47458"/>
        <path d="M238.18 409.349C240.855 410.431 243.039 412.393 244.343 414.883C246.515 419.051 247.231 430.718 238.477 435.199C229.724 439.681 223.949 431.415 224.492 424.008C225.035 416.602 227.463 406.895 238.18 409.349Z"
              fill="#F7A491"/>
        <path d="M221.891 421.943C221.66 423.863 222.367 425.501 223.47 425.602C224.573 425.703 225.654 424.227 225.884 422.308C226.115 420.389 225.408 418.75 224.305 418.649C223.203 418.549 222.122 420.023 221.891 421.943Z"
              fill="#F7A491"/>
        <path d="M243.572 425.175C242.802 427.034 243.185 428.985 244.427 429.533C245.67 430.082 247.3 429.019 248.069 427.162C248.839 425.304 248.455 423.352 247.214 422.803C245.972 422.254 244.341 423.316 243.572 425.175Z"
              fill="#F7A491"/>
        <path d="M640.545 118.852L657.631 141.376L668.942 129.491L640.545 118.852Z" fill="#466EB6"/>
        <path d="M670.475 123.266L668.942 129.491L640.546 118.852L670.475 123.266Z" fill="#9BC1F9"/>
        <path d="M668.943 131.869L640.546 118.853L666.94 141.376L668.943 131.869Z" fill="#9BC1F9"/>
        <path d="M686.192 158.859C685.982 158.84 680.991 158.346 674.665 154.564C668.315 150.766 665.938 144.137 665.938 143.073C665.941 142.881 666.021 142.698 666.163 142.562C666.305 142.426 666.496 142.349 666.697 142.347C666.897 142.345 667.09 142.419 667.234 142.552C667.378 142.685 667.463 142.867 667.469 143.059C667.538 143.769 669.568 149.78 675.475 153.315C681.471 156.901 686.29 157.39 686.338 157.395C686.537 157.417 686.719 157.514 686.845 157.663C686.971 157.813 687.031 158.004 687.012 158.196C686.993 158.388 686.896 158.564 686.743 158.688C686.59 158.812 686.392 158.874 686.192 158.859Z"
              fill="#F7CC7F"/>
        <path d="M717.23 165.522C708.35 163.806 699.838 160.651 692.061 156.191C685.596 152.495 680.383 146.861 673.789 143.734C673.694 143.694 673.609 143.636 673.538 143.563C673.467 143.491 673.412 143.405 673.377 143.311C673.342 143.218 673.326 143.119 673.332 143.019C673.338 142.92 673.364 142.823 673.41 142.734C673.456 142.645 673.52 142.565 673.599 142.501C673.678 142.436 673.769 142.388 673.868 142.358C673.967 142.328 674.071 142.318 674.174 142.328C674.277 142.338 674.376 142.368 674.467 142.416C681.293 145.654 686.464 151.282 692.844 154.928C700.472 159.303 708.821 162.399 717.531 164.082C721.237 164.729 725.009 164.953 728.77 164.751C728.973 164.742 729.171 164.812 729.32 164.944C729.47 165.076 729.559 165.26 729.567 165.455C729.576 165.65 729.503 165.84 729.366 165.984C729.228 166.128 729.037 166.213 728.834 166.221C724.951 166.425 721.056 166.19 717.23 165.522Z"
              fill="#F7CC7F"/>
        <path d="M375.741 396.681C375.741 396.681 356.948 364.462 352.375 357.614C347.802 350.766 335.892 323.549 335.466 322.475C335.04 321.402 343.669 308.523 341.743 308.082C339.817 307.641 337.686 314.873 335.631 314.008C333.577 313.144 327.574 295.736 326.403 296.6C324.212 298.216 329.638 307.398 328.47 307.976C327.303 308.553 323.765 297.873 321.471 298.186C319.176 298.5 325.833 307.977 325.191 308.816C324.55 309.654 317.64 300.724 316.39 302.628C315.711 303.661 322.743 310.422 321.392 311.055C320.042 311.688 313.787 307.324 313.124 308.583C312.462 309.841 318.909 311.564 320.837 314.957C322.765 318.349 326.05 319.816 327.412 326.098C328.774 332.38 330.814 355.115 337.799 366.458C344.783 377.801 360.143 402.904 360.143 402.904L375.741 396.681Z"
              fill="#F79C8D"/>
        <path d="M459.036 552.161C459.036 552.161 457.506 550.327 457.047 549.68C456.508 548.922 455.078 546.529 455.078 546.529C455.078 546.529 450.501 537.971 451.187 537.697C451.873 537.423 453.512 538.47 453.987 538.903C454.462 539.336 455.061 539.799 455.538 540.232C455.662 540.341 455.807 540.425 455.964 540.48C456.122 540.535 456.29 540.56 456.458 540.552C456.625 540.545 456.79 540.506 456.942 540.437C457.094 540.369 457.23 540.272 457.343 540.153C457.944 539.624 456.44 537.501 455.768 536.868C453.674 534.892 446.967 530.697 446.279 530.224C445.462 529.664 440.37 513.415 438.163 507.981H438.166C434.832 498.983 431.875 489.573 431.527 488.618L429.426 447.764L413.538 442.678C413.538 442.678 415.205 488.05 415.559 490.309C415.726 491.384 425.136 511.664 425.145 511.661C430.434 521.368 435.119 529.906 435.97 531.57C435.97 531.57 437.124 537.208 437.638 540.838C438.152 544.468 440.143 547.612 440.451 548.612C441.189 551.208 442.383 553.663 443.982 555.872C446.242 558.99 445.589 555.015 445.589 555.015C445.589 555.015 442.485 548.495 443.062 548.341C443.507 548.222 444.982 551.882 447.446 555.358C448.079 556.253 448.709 557.133 449.292 557.937C450.825 560.045 452.615 559.724 451.377 557.265C450.83 556.144 450.198 555.063 449.485 554.031C448.736 553.015 448.391 551.844 447.898 550.897C446.919 549.014 446.18 547.653 446.283 547.656C446.416 547.659 446.496 547.15 447.199 548.078C448.045 549.194 449.292 551.956 450.669 553.503C451.446 554.381 452.962 556.31 452.962 556.31C452.962 556.31 455.772 559.177 455.98 559.062C457.114 558.444 455.714 555.831 454.491 554.775C454.075 553.713 452.423 551.726 452.423 551.726C452.423 551.726 450.023 546.973 450.718 546.627C451.289 546.342 459.323 556.628 460.412 555.93C461.306 555.36 459.036 552.161 459.036 552.161Z"
              fill="#F48C7F"/>
        <path d="M430.617 393.004C431.003 384.092 429.637 375.292 425.486 366.996C421.914 359.857 413.078 355.807 405.02 355.796C379.432 355.764 376.178 388.239 359.887 400.765C354.91 404.593 349.347 407.71 344.638 411.838C327.247 427.079 335.081 455.294 351.048 468.656C362.129 477.929 379.545 483.197 393.202 475.947C400.331 472.163 405.743 465.874 409.599 458.983C415.07 449.202 418.598 437.916 422.49 427.492C426.635 416.4 430.105 404.849 430.617 393.004Z"
              fill="#184655"/>
        <path d="M350.632 679.9C350.632 679.9 348.829 691.887 345.727 695.756C344.686 697.055 342.785 698.697 341.536 701.043C339.593 704.696 340.667 710.133 342.1 713.128C342.836 714.665 342.049 714.661 343.724 715.156C346.134 715.836 348.72 715.647 350.994 714.623C353.269 713.599 355.075 711.812 356.074 709.598C357.54 706.369 358.362 702.904 358.497 699.384C359.027 688.5 362.558 682.967 362.558 682.967L350.632 679.9Z"
              fill="#F7A491"/>
        <path d="M404.89 685.382C404.89 685.382 406.003 698.899 405.1 703.291C404.615 705.643 401.922 710.486 403.158 712.7C404.394 714.913 405.806 715.467 405.806 715.467L437.834 715.961C439.579 715.988 438.429 714.912 437.019 713.92C434.717 712.297 432.858 711.224 425.503 707.815C425.023 707.593 423.277 706.528 422.648 706.159C420.941 705.075 419.399 703.77 418.066 702.279C415.766 699.825 415.566 687.922 415.566 687.922L404.89 685.382Z"
              fill="#F7A491"/>
        <path d="M429.922 505.713C429.922 505.713 433.956 527.659 431.308 542.046C428.661 556.434 415.949 689.796 415.949 689.796L401.825 690.56C401.825 690.56 398.863 634.851 399.394 627.105C399.924 619.358 404.115 606.393 404.115 606.393L402.709 561.416L420.534 502.327L429.922 505.713Z"
              fill="#3C8F7C"/>
        <path d="M388.41 501.098C388.41 501.098 377.288 517.145 374.64 530.426C371.991 543.707 376.583 584.523 371.489 601.927C368.732 611.347 358.28 625.896 356.692 638.07C355.103 650.244 348.87 682.134 348.87 682.134L362.988 684.816L395.8 605.175L421.537 533.191L428.13 496.118L388.41 501.098Z"
              fill="#50BFA5"/>
        <path d="M397.412 409.792C397.412 409.792 382.688 408.893 376.861 414.98C371.035 421.068 389.784 469.22 390.844 476.967C391.904 484.713 385.443 505.313 385.443 505.313C385.443 505.313 420.037 511.986 429.922 505.714C429.922 505.714 430.982 450.005 429.922 444.472C428.863 438.938 420.037 416.432 417.918 414.219C415.799 412.006 397.412 409.792 397.412 409.792Z"
              fill="#466EB6"/>
        <path d="M402.315 390.93C402.315 390.93 402.239 391.346 402.102 392.053C401.446 395.447 398.917 406.705 397.209 409.801C395.144 413.54 404.275 425.47 413.063 424.014C415.679 423.581 410.852 413.053 411.084 411.938C411.528 409.803 412.131 406.891 412.746 403.906C413.095 402.221 413.446 400.512 413.777 398.907C414.716 394.345 415.484 390.615 415.484 390.615L402.315 390.93Z"
              fill="#F7A491"/>
        <path d="M402.102 392.053C402.239 391.346 402.315 390.93 402.315 390.93L415.484 390.615C415.484 390.615 414.716 394.345 413.777 398.907C413.449 400.504 413.098 402.202 412.753 403.877C410.719 403.59 408.595 402.643 406.465 400.855C404.288 399.029 402.646 396.688 401.702 394.065C401.865 393.267 402 392.579 402.102 392.053Z"
              fill="#F47458"/>
        <path d="M411.179 362.235C411.179 362.235 404.972 361.547 401.081 366.371C397.19 371.196 392.997 386.113 402.662 394.223C412.327 402.334 421.877 393.153 423.292 383.418C424.708 373.683 425.259 361.883 411.179 362.235Z"
              fill="#F7A491"/>
        <path d="M426.152 383.276C424.998 385.428 423.062 386.616 421.826 385.935C420.59 385.253 420.526 382.958 421.679 380.808C422.832 378.659 424.769 377.47 426.004 378.149C427.24 378.828 427.305 381.126 426.152 383.276Z"
              fill="#F7A491"/>
        <path d="M411.873 360.64C411.873 360.64 403.58 374.827 397.648 375.482C391.715 376.137 390.937 383.675 390.937 383.675C390.937 383.675 393.058 366.306 398.931 362.956C404.804 359.607 411.873 360.64 411.873 360.64Z"
              fill="#184655"/>
        <path d="M357.036 707.201C349.342 708.547 344.222 704.232 341.558 701.001C339.602 704.66 338.648 710.121 340.087 713.127C341.354 715.775 345.056 715.699 347.972 715.802C351.054 715.912 353.439 714.27 354.968 711.698C355.812 710.269 356.505 708.763 357.036 707.201Z"
              fill="#B75742"/>
        <path d="M422.643 706.156C414.173 708.239 407.911 706.822 404.409 705.469C403.505 707.923 402.308 711.003 402.943 712.776C403.72 714.951 404.828 715.441 405.806 715.467C413.544 715.661 434.146 715.926 440.046 716C440.231 716.003 440.412 715.955 440.569 715.861C440.726 715.768 440.851 715.633 440.93 715.473C441.009 715.312 441.039 715.134 441.015 714.958C440.991 714.782 440.914 714.616 440.795 714.481C439.332 712.806 423.275 706.525 422.643 706.156Z"
              fill="#B75742"/>
        <path d="M399.204 379.046C399.686 381.566 398.716 383.878 397.037 384.206C395.357 384.535 393.604 382.763 393.122 380.244C392.639 377.725 393.61 375.414 395.29 375.084C396.97 374.754 398.722 376.527 399.204 379.046Z"
              fill="#F7A491"/>
        <path d="M370.54 386.24C370.54 386.24 391.328 407.669 394.419 416.304C397.509 424.94 391.406 437.294 382.977 437.835C374.548 438.375 355.79 399.8 355.79 399.8L370.54 386.24Z"
              fill="#466EB6"/>
        <path d="M394.147 115.33L370.671 120.24C367.967 120.805 365.14 120.316 362.812 118.879C360.483 117.442 358.844 115.176 358.256 112.579L356.068 102.928C355.776 101.642 355.751 100.314 355.994 99.0182C356.238 97.7228 356.744 96.4861 357.484 95.3787C358.225 94.2713 359.185 93.3148 360.311 92.5639C361.436 91.813 362.705 91.2824 364.044 91.0024L387.519 86.0923C390.222 85.5268 393.05 86.0162 395.378 87.4528C397.706 88.8894 399.345 91.1556 399.934 93.7529L402.122 103.404C402.413 104.69 402.438 106.019 402.196 107.314C401.953 108.609 401.446 109.846 400.706 110.953C399.965 112.061 399.005 113.017 397.88 113.768C396.754 114.519 395.486 115.049 394.147 115.33Z"
              fill="#50BFA5"/>
        <path d="M358.472 107.329L348.416 122.943L363.847 116.563L358.472 107.329Z" fill="#50BFA5"/>
        <path d="M369.834 102.974L373.747 102.055C373.747 102.055 377.865 97.4292 377.722 96.141C377.579 94.8527 376.143 92.3715 376.833 91.8712C377.368 91.4539 378.051 91.2541 378.738 91.3146C379.424 91.3751 380.058 91.691 380.505 92.1949C381.535 93.2398 381.949 97.7797 382.479 97.9739C382.812 98.096 385.078 97.6286 386.726 97.2614C387.258 97.1429 387.814 97.1666 388.332 97.33C388.851 97.4934 389.313 97.7902 389.669 98.1882L389.671 98.1904C389.909 98.4565 390.045 98.793 390.055 99.1436C390.066 99.4942 389.95 99.8376 389.729 100.116L389.017 101.01L389.914 101.741C390.234 102.002 390.434 102.375 390.47 102.777C390.506 103.18 390.374 103.58 390.104 103.889L389.531 104.548L390.126 104.963C390.307 105.09 390.458 105.251 390.57 105.438C390.681 105.624 390.751 105.831 390.774 106.045C390.796 106.259 390.772 106.475 390.702 106.679C390.632 106.883 390.518 107.071 390.367 107.23L389.849 107.777L389.98 107.921C390.242 108.208 390.383 108.579 390.375 108.961C390.366 109.343 390.209 109.709 389.934 109.985L389.408 110.512L378.982 112.959C378.005 113.188 376.99 113.223 375.999 113.062L372.184 113.34C371.986 113.355 371.788 113.3 371.628 113.187C371.468 113.073 371.356 112.909 371.311 112.722L369.22 103.926C369.172 103.722 369.209 103.508 369.324 103.33C369.439 103.151 369.622 103.024 369.834 102.974Z"
              fill="white"/>
        <path d="M467.64 1.01592C488.671 4.77791 503.768 17.8867 501.363 30.2953C500.16 36.4999 494.808 41.3547 487.13 44.1881L492.118 64.0101L476.915 46.5727C470.922 47.2502 464.856 47.0402 458.929 45.9503C437.899 42.1888 422.801 29.08 425.207 16.6713C427.612 4.2627 446.609 -2.74563 467.64 1.01592Z"
              fill="#FAE0B2"/>
        <path d="M477.27 28.2845C476.113 30.5953 474.269 32.5248 471.971 33.829C469.673 35.1333 467.024 35.7537 464.359 35.6119C461.693 35.4701 459.132 34.5724 456.998 33.0323C454.864 31.4922 453.253 29.3789 452.369 26.9596C451.485 24.5402 451.368 21.9235 452.032 19.4402C452.696 16.9568 454.112 14.7185 456.101 13.008C458.089 11.2976 460.561 10.1919 463.204 9.8307C465.846 9.46953 468.541 9.86912 470.948 10.9789C472.546 11.716 473.978 12.7484 475.161 14.0172C476.344 15.2859 477.255 16.7662 477.842 18.3733C478.429 19.9805 478.681 21.683 478.583 23.3836C478.484 25.0843 478.038 26.7496 477.27 28.2845Z"
              fill="#F7CC7F"/>
        <path d="M457.675 21.5195C456.846 23.1767 456.737 25.0822 457.37 26.8169C458.004 28.5517 459.329 29.9735 461.055 30.7697C462.78 31.5658 464.764 31.6711 466.57 31.0623C468.376 30.4535 469.856 29.1805 470.685 27.5233L457.675 21.5195Z"
              fill="#EFEFEF"/>
        <path d="M755.932 364.603L751.28 365.056L749.693 357.947L742.806 357.805L740.713 352.671L738.009 353.688L740.808 360.555L747.334 360.69L748.984 368.085L755.984 367.403L755.932 364.603Z"
              fill="#50BFA5"/>
        <path d="M717.899 277.189L707.016 272.61L704.544 279.829L700.942 278.69L704.718 267.666L715.537 272.218L718.298 263.678L728.255 267.664L732.347 259.264L735.78 260.807L730.15 272.367L720.684 268.579L717.899 277.189Z"
              fill="#86B1F2"/>
    </g>
    <defs>
        <clipPath id="clip0_89_882">
            <rect width="765" height="716" fill="white"/>
        </clipPath>
    </defs>
</svg>
